<?xml version="1.0" encoding="UTF-8"?>
<svg version="1.1" xmlns="http://www.w3.org/2000/svg" width="591" height="345">
<path d="M0 0 C195.03 0 390.06 0 591 0 C591 113.85 591 227.7 591 345 C395.97 345 200.94 345 0 345 C0 231.15 0 117.3 0 0 Z " fill="#FEFEFE" transform="translate(0,0)"/>
<path d="M0 0 C2.14362921 0.0161267 4.28538142 0.00003276 6.42895508 -0.01904297 C14.83440044 -0.03246807 22.52687406 0.80968784 30.5793457 3.39111328 C31.26391846 3.61009277 31.94849121 3.82907227 32.65380859 4.0546875 C47.19327248 9.06209528 60.7272348 16.43112851 71.5793457 27.39111328 C72.4455957 28.21611328 73.3118457 29.04111328 74.2043457 29.89111328 C75.3799707 31.12861328 75.3799707 31.12861328 76.5793457 32.39111328 C77.17102539 32.99955078 77.76270508 33.60798828 78.37231445 34.23486328 C87.63128833 44.12065357 93.94397142 55.71926168 98.5793457 68.39111328 C98.99442383 69.52033203 99.40950195 70.64955078 99.8371582 71.81298828 C108.13635457 98.85792189 102.3345395 127.21705619 89.56079102 151.56738281 C85.30195964 159.48118141 79.71712346 165.87171204 73.5793457 172.39111328 C72.98766602 173.07044922 72.39598633 173.74978516 71.78637695 174.44970703 C63.05062128 184.03396877 50.4799612 190.60328288 38.5793457 195.39111328 C37.94512695 195.67341797 37.3109082 195.95572266 36.6574707 196.24658203 C14.94630607 205.38568338 -13.97111226 203.54873579 -35.54467773 195.18115234 C-39.99548468 193.30676254 -44.25020912 191.04271511 -48.49487305 188.74658203 C-51.48813907 187.1108708 -51.48813907 187.1108708 -55.4206543 187.39111328 C-57.52721158 188.90989783 -57.52721158 188.90989783 -59.55725098 191.06015015 C-60.37314194 191.87343277 -61.1890329 192.68671539 -62.02964783 193.52464294 C-62.91600418 194.42852249 -63.80236053 195.33240204 -64.71557617 196.26367188 C-65.66445387 197.21695158 -66.61422936 198.16933837 -67.56483459 199.12089539 C-69.61089732 201.17282848 -71.65048269 203.23092031 -73.68531799 205.29398727 C-76.90272787 208.55589423 -80.13422215 211.80359815 -83.36779785 215.04946899 C-88.48104806 220.18549281 -93.58486847 225.33077117 -98.68467474 230.48014128 C-107.81579273 239.69985365 -116.95801884 248.90851836 -126.11078501 258.10673964 C-129.32297166 261.33574348 -132.52945313 264.57027834 -135.7314682 267.8093679 C-137.7247447 269.82393831 -139.722086 271.83444228 -141.72045708 273.8439579 C-143.08764613 275.22139388 -144.44973003 276.60389116 -145.81166077 277.98652649 C-146.62755173 278.80544876 -147.44344269 279.62437103 -148.28405762 280.46810913 C-148.99048653 281.1815769 -149.69691544 281.89504467 -150.42475128 282.63013268 C-153.43396365 285.28515377 -155.33257872 286.43448902 -159.37866211 286.27319336 C-162.96372052 285.23364151 -164.48945524 283.92748917 -167.0925293 281.27783203 C-167.92139648 280.441875 -168.75026367 279.60591797 -169.60424805 278.74462891 C-170.45116211 277.86484375 -171.29807617 276.98505859 -172.1706543 276.07861328 C-173.03303711 275.21042969 -173.89541992 274.34224609 -174.78393555 273.44775391 C-181.97733242 266.11364113 -181.97733242 266.11364113 -183.4206543 262.39111328 C-183.33586991 258.40624696 -182.8011202 256.81271063 -180.1081543 253.82861328 C-178.7778418 252.62205078 -178.7778418 252.62205078 -177.4206543 251.39111328 C-176.7812793 250.56611328 -176.1419043 249.74111328 -175.4831543 248.89111328 C-173.5257771 246.51853487 -171.44272701 244.74585312 -169.04956055 242.83251953 C-167.19233132 241.18907208 -165.64695304 239.40922045 -164.0456543 237.51611328 C-161.02652661 233.96144188 -157.7518936 230.98914885 -154.19799805 227.98095703 C-151.97876473 225.99584064 -150.26271435 223.72438935 -148.4206543 221.39111328 C-146.94813683 220.17468581 -145.47459399 218.95926504 -143.9831543 217.76611328 C-142.31285046 216.2962459 -140.95723216 214.7345559 -139.5456543 213.01611328 C-136.83833326 209.75470323 -133.85891214 207.08897456 -130.63549805 204.34814453 C-126.36243302 200.57247332 -122.4214531 196.45065138 -118.4206543 192.39111328 C-116.75527912 190.72315613 -115.08863382 189.05646606 -113.4206543 187.39111328 C-112.29143555 186.26189453 -112.29143555 186.26189453 -111.1394043 185.10986328 C-99.4206543 173.39111328 -99.4206543 173.39111328 -96.8581543 170.89111328 C-94.41766436 168.48539281 -94.41766436 168.48539281 -92.5456543 165.95361328 C-89.82899973 162.67764748 -86.70733115 160.07769464 -83.4206543 157.39111328 C-84.62513916 153.36381004 -86.19345245 149.78561489 -88.18798828 146.08837891 C-99.68155673 124.67452655 -102.91687344 99.89126086 -96.4206543 76.39111328 C-96.19249023 75.51326172 -95.96432617 74.63541016 -95.72924805 73.73095703 C-91.04028118 56.82388223 -82.58215469 42.91532509 -70.4206543 30.39111328 C-69.74776367 29.64474609 -69.07487305 28.89837891 -68.3815918 28.12939453 C-50.84917869 9.31652428 -25.36196496 -0.22636838 0 0 Z " fill="#050505" transform="translate(234.420654296875,32.60888671875)"/>
<path d="M0 0 C15.80987553 14.20567609 25.4187888 35.11231707 26.91455078 56.20800781 C27.81355034 77.51492315 20.79291343 97.135965 8.49658203 114.34472656 C4.81135612 112.86412807 3.1461034 110.88474922 0.80908203 107.71972656 C-3.15166746 102.61786894 -7.45365041 98.36291064 -12.50341797 94.34472656 C-13.00542725 93.94487549 -13.50743652 93.54502441 -14.0246582 93.13305664 C-18.53511019 89.70983571 -23.1505814 87.61710652 -28.44091797 85.65722656 C-29.20082031 85.36267578 -29.96072266 85.068125 -30.74365234 84.76464844 C-40.24086277 81.15554627 -48.29163854 80.02540877 -58.44091797 80.09472656 C-59.56949219 80.08699219 -60.69806641 80.07925781 -61.86083984 80.07128906 C-72.12792459 80.09517989 -80.3396073 81.77034488 -89.50341797 86.34472656 C-90.38126953 86.77785156 -91.25912109 87.21097656 -92.16357422 87.65722656 C-104.21573513 93.89519452 -114.69582615 102.45746379 -121.50341797 114.34472656 C-129.78288806 111.1088638 -133.83465643 99.21548581 -137.21826172 91.61816406 C-144.74047308 72.45824575 -144.82212594 50.03227982 -137.12841797 30.90722656 C-136.28058374 29.04048176 -135.40734666 27.18496349 -134.50341797 25.34472656 C-134.12314453 24.56871094 -133.74287109 23.79269531 -133.35107422 22.99316406 C-130.06923056 16.73887615 -126.06711686 10.73452548 -121.50341797 5.34472656 C-120.84341797 5.34472656 -120.18341797 5.34472656 -119.50341797 5.34472656 C-119.28041016 4.78269531 -119.05740234 4.22066406 -118.82763672 3.64160156 C-112.49493615 -7.34255163 -95.15371048 -15.95107059 -83.37060547 -19.25292969 C-82.71318359 -19.40632813 -82.05576172 -19.55972656 -81.37841797 -19.71777344 C-77.62151829 -20.56908654 -77.62151829 -20.56908654 -74.50341797 -21.65527344 C-46.77974217 -25.44854665 -21.17501599 -18.33098902 0 0 Z " fill="#FBFBFB" transform="translate(294.50341796875,71.6552734375)"/>
<path d="M0 0 C0.92296875 0.40089844 1.8459375 0.80179688 2.796875 1.21484375 C12.52179423 5.95368151 22.81421396 14.39669251 28 24 C27.93359375 26.46875 27.93359375 26.46875 27 29 C24.671875 30.9140625 24.671875 30.9140625 21.75 32.625 C20.79609375 33.19476563 19.8421875 33.76453125 18.859375 34.3515625 C17.91578125 34.89554688 16.9721875 35.43953125 16 36 C14.81470703 36.76570313 14.81470703 36.76570313 13.60546875 37.546875 C10.38676145 39.3420161 7.0542175 40.49706733 3.5625 41.625 C2.91990234 41.8415625 2.27730469 42.058125 1.61523438 42.28125 C-19.27180427 49.15170738 -42.73803785 46.31743491 -62.06762695 36.57592773 C-72.24277723 31.28002633 -72.24277723 31.28002633 -75 28 C-74.59240075 20.34207469 -67.6341626 14.40015558 -62.4375 9.375 C-56.59108235 4.26274199 -50.10907757 1.04073105 -43 -2 C-42.10925781 -2.38542969 -41.21851563 -2.77085937 -40.30078125 -3.16796875 C-27.72056383 -6.33907681 -11.81010931 -5.38203553 0 0 Z " fill="#FBFBFB" transform="translate(260,172)"/>
<path d="M0 0 C8.77356438 4.63323063 16.46616725 12.1227418 19.61328125 21.71484375 C21.48182767 31.15023104 20.70853487 40.615888 16.0859375 49.1015625 C10.94862652 56.74104612 3.61747634 62.40934707 -5.38671875 64.7421875 C-15.55350683 66.18785134 -24.56759654 65.33460221 -33.1015625 59.4140625 C-40.88012948 53.12007292 -46.16758963 44.72841346 -47.296875 34.703125 C-47.6411631 24.12200413 -45.5610835 16.92747358 -38.7890625 8.7890625 C-28.86414071 -1.66168296 -13.62979567 -5.42151724 0 0 Z " fill="#060606" transform="translate(249.9140625,84.8984375)"/>
<path d="M0 0 C1.07636719 -0.00386719 2.15273438 -0.00773437 3.26171875 -0.01171875 C4.84919922 -0.00978516 4.84919922 -0.00978516 6.46875 -0.0078125 C7.41169922 -0.00668457 8.35464844 -0.00555664 9.32617188 -0.00439453 C13.39815725 0.16161718 17.44955798 0.67495089 21.5 1.125 C21.5 7.395 21.5 13.665 21.5 20.125 C11.44140625 20.22265625 11.44140625 20.22265625 8.5 20.125 C7.5 19.125 7.5 19.125 7.4375 15.5625 C7.458125 14.428125 7.47875 13.29375 7.5 12.125 C4.89547729 12.26586602 2.29149803 12.41248464 -0.3125 12.5625 C-1.41948242 12.62147461 -1.41948242 12.62147461 -2.54882812 12.68164062 C-5.73071342 12.86881035 -8.46162378 13.11220793 -11.5 14.125 C-11.005 16.6 -11.005 16.6 -10.5 19.125 C-9.6342334 19.25551758 -8.7684668 19.38603516 -7.87646484 19.52050781 C-4.59125951 20.02026863 -1.30753327 20.5282824 1.97558594 21.04150391 C3.38297136 21.25986925 4.79083843 21.4751579 6.19921875 21.68701172 C15.89641188 23.14851725 25.1328453 25.19328105 34.5 28.125 C34.5 28.785 34.5 29.445 34.5 30.125 C35.0775 30.351875 35.655 30.57875 36.25 30.8125 C39.20097691 32.5339032 40.61269427 34.27054797 42.5 37.125 C43.63589556 45.26879356 43.18624093 53.61211523 38.9375 60.75 C28.32208298 71.09322684 12.94455489 71.25485325 -1.03125 71.328125 C-1.90664429 71.33382507 -2.78203857 71.33952515 -3.68395996 71.34539795 C-5.52594829 71.35477454 -7.36795283 71.36135238 -9.20996094 71.36523438 C-11.965809 71.37488033 -14.72089047 71.40595027 -17.4765625 71.4375 C-29.12158203 71.5048213 -40.08892238 70.44714379 -51.5 68.125 C-51.8109553 47.93551709 -51.8109553 47.93551709 -49.5 39.125 C-44.88 39.125 -40.26 39.125 -35.5 39.125 C-35.5 45.725 -35.5 52.325 -35.5 59.125 C-29.31084357 59.17118773 -23.12229762 59.21092982 -16.93310547 59.23486328 C-14.83249879 59.24485236 -12.73190577 59.25844825 -10.63134766 59.27587891 C5.54901738 59.51718346 5.54901738 59.51718346 21.5 57.125 C21.685625 56.2278125 21.685625 56.2278125 21.875 55.3125 C22.5 53.125 22.5 53.125 24.5 50.125 C25.27214663 44.8744029 25.49487518 40.52952967 22.375 36.125 C17.5632234 32.77767715 13.13374254 30.81753651 7.359375 29.80859375 C6.20566406 29.60169922 5.05195313 29.39480469 3.86328125 29.18164062 C2.67089844 28.97732422 1.47851562 28.77300781 0.25 28.5625 C-3.25234452 27.94297247 -6.75437228 27.32171492 -10.25610352 26.69873047 C-12.3174453 26.33415207 -14.38031362 25.97802565 -16.44506836 25.63330078 C-17.32300049 25.47716309 -18.20093262 25.32102539 -19.10546875 25.16015625 C-19.86239014 25.03133057 -20.61931152 24.90250488 -21.39916992 24.76977539 C-25.16733394 23.6132709 -27.91752649 21.03126988 -30.5 18.125 C-32.11918229 14.88663543 -32.21638416 11.61318827 -31.5 8.125 C-22.66727383 -1.10921372 -11.94078017 -0.04290101 0 0 Z " fill="#FA9D20" transform="translate(501.5,96.875)"/>
<path d="M0 0 C1.29355408 -0.00960754 2.58710815 -0.01921509 3.91986084 -0.02911377 C5.35054344 -0.03397047 6.78122812 -0.03824713 8.21191406 -0.04199219 C9.29654308 -0.04623325 9.29654308 -0.04623325 10.4030838 -0.05056 C14.25277576 -0.06560574 18.10242996 -0.07479251 21.95214844 -0.07910156 C25.10005594 -0.08343863 28.24768198 -0.09713311 31.39550781 -0.12011719 C61.41536766 -0.33450161 61.41536766 -0.33450161 74.18066406 1.36425781 C74.97986267 1.46422058 75.77906128 1.56418335 76.60247803 1.66717529 C83.05536098 2.69941847 88.26333652 5.52217549 92.95019531 10.07910156 C95.46077596 15.16708441 94.75732263 22.00328587 93.42675781 27.39160156 C91.16867359 32.23952645 87.0033237 34.13823796 82.41503906 36.31347656 C79.97753906 37.16113281 79.97753906 37.16113281 75.97753906 37.16113281 C75.97753906 37.82113281 75.97753906 38.48113281 75.97753906 39.16113281 C77.01201172 39.14759766 77.01201172 39.14759766 78.06738281 39.13378906 C85.90712101 39.38113334 90.45303513 41.59808583 95.97753906 47.16113281 C98.47680304 52.15966077 97.68266165 60.20448087 96.41113281 65.53613281 C94.76694142 69.53039883 92.70129654 72.25744652 88.88378906 74.25878906 C72.1240406 80.97901288 53.97373969 80.32881256 36.2019043 80.29150391 C33.18110086 80.28616122 30.16044728 80.29146977 27.13964844 80.29785156 C15.71536757 80.30135713 4.37158888 80.00229785 -7.02246094 79.16113281 C-7.02246094 76.19113281 -7.02246094 73.22113281 -7.02246094 70.16113281 C-6.15517365 70.15748718 -5.28788635 70.15384155 -4.39431763 70.15008545 C3.81440107 70.11207995 12.02272752 70.0550857 20.23116875 69.97723007 C24.45035133 69.93786902 28.66932876 69.90562525 32.88867188 69.89013672 C36.96733498 69.87489455 41.04543364 69.84031713 45.12384415 69.79282379 C46.67295526 69.77808736 48.222147 69.77009628 49.77132797 69.76924896 C58.59853829 69.75957317 65.93227076 69.18874171 73.97753906 65.16113281 C74.96753906 64.83113281 75.95753906 64.50113281 76.97753906 64.16113281 C78.08842041 58.88444643 78.73970457 53.52319134 77.97753906 48.16113281 C74.56680432 42.99001885 69.70683973 41.69643561 63.97753906 40.16113281 C64.97753906 37.16113281 64.97753906 37.16113281 67.91503906 35.47363281 C70.97753906 34.16113281 70.97753906 34.16113281 72.97753906 34.16113281 C75.53261508 28.41221177 75.83816161 22.33632139 74.97753906 16.16113281 C71.96636298 12.44144471 68.49618675 11.45167502 63.97753906 10.16113281 C61.5835467 9.96602907 59.18060113 9.86792707 56.77880859 9.84228516 C56.08542892 9.83223953 55.39204926 9.82219391 54.67765808 9.81184387 C52.40523035 9.78116323 50.13291961 9.76401938 47.86035156 9.74707031 C46.27707931 9.72834645 44.6938169 9.70877213 43.11056519 9.68838501 C38.95798567 9.63718637 34.80537384 9.59749527 30.65264893 9.5602417 C26.40930265 9.52012486 22.16608936 9.46906765 17.92285156 9.41894531 C9.60783844 9.32233141 1.29275918 9.23788046 -7.02246094 9.16113281 C-7.12011719 3.00878906 -7.12011719 3.00878906 -7.02246094 1.16113281 C-5.21384064 -0.64748748 -2.43630925 0.0145609 0 0 Z " fill="#FB9C1A" transform="translate(350.0224609375,85.8388671875)"/>
<path d="M0 0 C0.66727112 -0.00200409 1.33454224 -0.00400818 2.02203369 -0.006073 C14.42742712 -0.01512749 27.03953973 0.52364036 39.1875 3.25 C41.04152624 5.10402624 40.35374347 7.71504768 40.37695312 10.18212891 C40.37598633 11.3913501 40.37598633 11.3913501 40.375 12.625 C40.37564453 13.43759277 40.37628906 14.25018555 40.37695312 15.08740234 C40.32229459 21.34456259 39.58485349 27.13657848 38.1875 33.25 C33.8975 33.25 29.6075 33.25 25.1875 33.25 C25.1875 26.32 25.1875 19.39 25.1875 12.25 C17.60525498 11.30221937 10.27414848 11.02938281 2.66186523 11.00976562 C0.39073952 11.00006721 -1.87947655 10.96897558 -4.15039062 10.9375 C-13.56632884 10.86899048 -22.77379497 11.02522878 -30.9375 16.25 C-34.39333946 19.93622876 -34.16808309 24.00777385 -34.0703125 28.8125 C-33.92675003 31.40219336 -33.92675003 31.40219336 -32.5 34.125 C-25.14750908 39.93859747 -15.40169957 41.00472446 -6.375 42.1875 C15.79918872 45.40717525 15.79918872 45.40717525 21.1875 52.25 C22.1974341 55.26258753 22.43083712 58.0866175 22.1875 61.25 C19.82026523 65.6579544 17.70807276 67.34571022 13 68.8984375 C6.4484758 70.74885435 -0.11078952 70.6302025 -6.85424805 70.53125 C-9.00652422 70.49990498 -11.15806409 70.49024474 -13.31054688 70.484375 C-19.60746499 70.44284919 -25.54720538 70.14504209 -31.8125 69.25 C-31.8125 63.64 -31.8125 58.03 -31.8125 52.25 C-27.5225 52.25 -23.2325 52.25 -18.8125 52.25 C-18.8125 54.89 -18.8125 57.53 -18.8125 60.25 C-8.9125 59.755 -8.9125 59.755 1.1875 59.25 C1.8475 57.27 2.5075 55.29 3.1875 53.25 C0.25103113 52.64042743 -2.68634165 52.03637478 -5.625 51.4375 C-6.5226709 51.25372803 -7.4203418 51.06995605 -8.34521484 50.88061523 C-13.71882672 49.80203912 -19.08102982 48.89572019 -24.51025391 48.15014648 C-33.57532147 46.88913377 -41.66343579 45.50279081 -48.3125 38.6875 C-52.31478696 32.18378369 -52.42090038 26.86451095 -51.8125 19.25 C-50.625 15.8125 -50.625 15.8125 -48.8125 13.25 C-48.131875 12.21875 -47.45125 11.1875 -46.75 10.125 C-43.31978186 6.16625882 -38.6654827 4.83950541 -33.8125 3.25 C-32.69875 2.858125 -31.585 2.46625 -30.4375 2.0625 C-20.51747465 -0.16095396 -10.1194195 0.02471242 0 0 Z " fill="#FA9C1B" transform="translate(501.8125,83.75)"/>
<path d="M0 0 C6.620625 -0.061875 13.24125 -0.12375 20.0625 -0.1875 C22.13926025 -0.21481201 24.21602051 -0.24212402 26.35571289 -0.27026367 C28.01968811 -0.2790335 29.68366982 -0.28667626 31.34765625 -0.29296875 C32.19710815 -0.30831665 33.04656006 -0.32366455 33.92175293 -0.33947754 C40.21782438 -0.34222252 44.51930288 0.86666951 49.9375 4.1875 C51.77899962 7.3288817 51.56181249 10.52697733 51 14 C49.31226185 18.98284597 46.54266016 21.92887992 41.8828125 24.2890625 C38.92308336 25.40663657 36.1483811 25.7429893 33 26 C33 26.99 33 27.98 33 29 C34.27875 28.896875 35.5575 28.79375 36.875 28.6875 C42.64999466 28.66000003 47.22296401 30.87217882 52 34 C53.97125294 37.94250588 53.44717024 42.70219715 53 47 C50.69522089 51.18274727 48.49885874 52.65809966 44 54 C40.62697375 54.2691053 37.2685609 54.2327428 33.88671875 54.1953125 C33.02679321 54.19329834 32.16686768 54.19128418 31.28088379 54.18920898 C28.08303457 54.17878198 24.88526166 54.15085945 21.6875 54.125 C14.530625 54.08375 7.37375 54.0425 0 54 C0 36.18 0 18.36 0 0 Z " fill="#FB9A15" transform="translate(372,98)"/>
<path d="M0 0 C7.92 0 15.84 0 24 0 C24 7.875 24 7.875 23 11 C21.02 11 19.04 11 17 11 C17.01571045 12.26070312 17.0314209 13.52140625 17.04760742 14.8203125 C17.10215125 19.52418561 17.13643876 24.22803107 17.16479492 28.93212891 C17.17982599 30.9631013 17.20025647 32.99404154 17.22631836 35.02490234 C17.26295232 37.95418259 17.27978351 40.88303144 17.29296875 43.8125 C17.30845261 44.71178223 17.32393646 45.61106445 17.33988953 46.53759766 C17.34235339 55.89196623 14.3522726 62.87053586 8.25 70.0625 C1.30770205 76.0405899 -8.33439142 81.44500512 -17.75 80.81640625 C-21.6505906 79.40108779 -22.273976 76.64382845 -24 73 C-24 72.34 -24 71.68 -24 71 C-23.27554688 70.68546875 -22.55109375 70.3709375 -21.8046875 70.046875 C-12.93140733 66.11896964 -6.39711057 62.96940482 -2 54 C-1.07391858 50.94413487 -0.8510019 48.14239336 -0.79467773 44.95605469 C-0.77473251 43.95531921 -0.75478729 42.95458374 -0.73423767 41.92352295 C-0.71752518 40.85047913 -0.70081268 39.7774353 -0.68359375 38.671875 C-0.66281265 37.56773254 -0.64203156 36.46359009 -0.62062073 35.32598877 C-0.55526354 31.80072217 -0.49630436 28.27538141 -0.4375 24.75 C-0.39430164 22.35936735 -0.35068693 19.96874218 -0.30664062 17.578125 C-0.19881323 11.71882489 -0.0996364 5.85946806 0 0 Z " fill="#FB9B19" transform="translate(108,98)"/>
<path d="M0 0 C2.29510823 0.01073507 4.58943678 0.00005107 6.88452148 -0.01269531 C8.36694506 -0.01137378 9.84936815 -0.00881153 11.33178711 -0.00488281 C12.34306419 -0.01095551 12.34306419 -0.01095551 13.37477112 -0.01715088 C18.49472648 0.03242709 22.010315 0.95478822 27.23413086 2.26074219 C27.23413086 9.19074219 27.23413086 16.12074219 27.23413086 23.26074219 C31.19413086 23.26074219 35.15413086 23.26074219 39.23413086 23.26074219 C37.61675362 26.49549667 36.75783863 27.9664624 34.23413086 30.26074219 C35.55413086 30.26074219 36.87413086 30.26074219 38.23413086 30.26074219 C38.23413086 31.25074219 38.23413086 32.24074219 38.23413086 33.26074219 C37.57413086 33.26074219 36.91413086 33.26074219 36.23413086 33.26074219 C36.23413086 32.60074219 36.23413086 31.94074219 36.23413086 31.26074219 C29.3094496 29.85391784 22.37372807 28.52487133 15.42163086 27.26074219 C14.46546875 27.08559082 13.50930664 26.91043945 12.52416992 26.72998047 C6.19844231 25.58227913 -0.12270388 24.57099113 -6.50024414 23.75292969 C-8.76586914 23.26074219 -8.76586914 23.26074219 -10.76586914 21.26074219 C-10.39086914 18.63574219 -10.39086914 18.63574219 -9.76586914 16.26074219 C-6.0028654 15.00640761 -2.49376005 15.15378797 1.42163086 15.19824219 C2.1712207 15.20275391 2.92081055 15.20726563 3.69311523 15.21191406 C5.54015469 15.22367865 7.38715299 15.24161353 9.23413086 15.26074219 C9.72913086 18.72574219 9.72913086 18.72574219 10.23413086 22.26074219 C14.52413086 22.59074219 18.81413086 22.92074219 23.23413086 23.26074219 C23.23413086 16.99074219 23.23413086 10.72074219 23.23413086 4.26074219 C18.55674003 4.2376503 13.87955108 4.21777811 9.20214844 4.20581055 C7.61457647 4.20081565 6.02700903 4.19401744 4.43945312 4.18530273 C-10.58699021 3.20877913 -10.58699021 3.20877913 -24.26586914 7.76074219 C-24.91555664 8.20417969 -25.56524414 8.64761719 -26.23461914 9.10449219 C-27.72784124 10.17664894 -27.72784124 10.17664894 -28.76586914 11.26074219 C-29.2332532 15.85668541 -29.50820769 18.91604121 -26.57836914 22.63574219 C-22.48739644 26.45398337 -18.64894305 27.43432294 -13.19555664 28.22558594 C-11.60227539 28.46631836 -11.60227539 28.46631836 -9.97680664 28.71191406 C-7.77635562 29.03270581 -5.57583619 29.35302868 -3.37524414 29.67285156 C19.4945841 33.13087981 19.4945841 33.13087981 25.89428711 40.05761719 C28.67704019 44.63333945 27.87688147 50.36052604 26.75366211 55.42871094 C25.49115156 58.43438326 24.03870473 59.91907991 21.01953125 61.20117188 C12.1451666 63.56136686 3.5903836 63.65430626 -5.52197266 63.54199219 C-8.09104908 63.51058718 -10.65950942 63.50098138 -13.22875977 63.49511719 C-14.88306406 63.48595345 -16.53736218 63.47557969 -18.19165039 63.46386719 C-18.94908035 63.45961731 -19.70651031 63.45536743 -20.4868927 63.45098877 C-21.20842026 63.44138123 -21.92994781 63.43177368 -22.67333984 63.421875 C-23.60833061 63.411633 -23.60833061 63.411633 -24.56221008 63.40118408 C-27.64730012 63.20456751 -30.70558976 62.69792496 -33.76586914 62.26074219 C-33.76586914 55.66074219 -33.76586914 49.06074219 -33.76586914 42.26074219 C-38.38586914 42.26074219 -43.00586914 42.26074219 -47.76586914 42.26074219 C-47.76586914 41.93074219 -47.76586914 41.60074219 -47.76586914 41.26074219 C-41.82586914 40.93074219 -35.88586914 40.60074219 -29.76586914 40.26074219 C-29.76586914 39.27074219 -29.76586914 38.28074219 -29.76586914 37.26074219 C-21.58452641 37.60609727 -13.58649278 38.29984524 -5.51586914 39.69824219 C-4.78956299 39.82046143 -4.06325684 39.94268066 -3.31494141 40.06860352 C0.12319253 40.69427315 2.28536771 41.29490009 5.23413086 43.26074219 C5.54663086 45.76074219 5.54663086 45.76074219 5.23413086 48.26074219 C3.23413086 50.26074219 3.23413086 50.26074219 1.17114258 50.48779297 C-0.06998291 50.47208252 -0.06998291 50.47208252 -1.33618164 50.45605469 C-2.23208008 50.44960937 -3.12797852 50.44316406 -4.05102539 50.43652344 C-4.98817383 50.41976562 -5.92532227 50.40300781 -6.89086914 50.38574219 C-7.83575195 50.37671875 -8.78063477 50.36769531 -9.75415039 50.35839844 C-12.09164206 50.33478741 -14.42863038 50.30185735 -16.76586914 50.26074219 C-16.76586914 47.62074219 -16.76586914 44.98074219 -16.76586914 42.26074219 C-21.05586914 42.26074219 -25.34586914 42.26074219 -29.76586914 42.26074219 C-29.76586914 47.87074219 -29.76586914 53.48074219 -29.76586914 59.26074219 C-24.39427975 59.33000337 -19.02426974 59.38961734 -13.65258789 59.42553711 C-11.82929199 59.44052708 -10.00603154 59.46092603 -8.18286133 59.48706055 C7.74373138 60.24708982 7.74373138 60.24708982 21.92163086 54.13574219 C23.81889865 49.97982226 23.74539514 46.56824947 22.23413086 42.26074219 C14.35132323 34.95472536 2.85344604 34.25952007 -7.30297852 32.88769531 C-25.31057051 30.26181704 -25.31057051 30.26181704 -30.95336914 24.63574219 C-33.41514402 20.05174759 -33.53417325 16.35715945 -32.76586914 11.26074219 C-30.95561442 6.63453568 -28.09351785 4.58484983 -23.76586914 2.26074219 C-15.91597222 -0.10348186 -8.12177867 -0.04523214 0 0 Z " fill="#FDECC7" transform="translate(499.765869140625,93.7392578125)"/>
<path d="M0 0 C8.58 0 17.16 0 26 0 C26.09203473 7.1173521 26.17161602 14.23262372 26.21972656 21.35009766 C26.23979065 23.7691143 26.26704843 26.18808276 26.30175781 28.60693359 C26.35050341 32.09224368 26.37302164 35.57691016 26.390625 39.0625 C26.41127014 40.13677246 26.43191528 41.21104492 26.45318604 42.31787109 C26.45539428 49.77642816 25.44743053 55.38197497 20.10546875 60.98828125 C9.94985251 68 9.94985251 68 4.6875 68 C3 67 3 67 1.6875 64.75 C0.91215301 61.64861202 0.86935197 59.98814123 2 57 C3.32467746 56.3162955 4.65863633 55.65035814 6 55 C8.48143158 50.50343507 8.34425268 45.98008703 8.4140625 40.98046875 C8.43342865 40.12189774 8.4527948 39.26332672 8.4727478 38.3787384 C8.53231556 35.64842526 8.57883734 32.91806943 8.625 30.1875 C8.66320079 28.33136227 8.70225375 26.47524188 8.7421875 24.61914062 C8.83799827 20.07956856 8.92211321 15.53991354 9 11 C6.03 11 3.06 11 0 11 C0 7.37 0 3.74 0 0 Z " fill="#FD9A14" transform="translate(78,98)"/>
<path d="M0 0 C2.375 1.5625 2.375 1.5625 4 4 C4.69245207 9.27994704 4.24255157 12.96615286 1.328125 17.4609375 C-2.78442142 22.22665306 -7.94549119 23.50575438 -14 24 C-14 24.99 -14 25.98 -14 27 C-12.72125 26.896875 -11.4425 26.79375 -10.125 26.6875 C-4.35000534 26.66000003 0.22296401 28.87217882 5 32 C6.97125294 35.94250588 6.44717024 40.70219715 6 45 C3.69523249 49.18272622 1.48932264 50.63597539 -3 52 C-6.08219889 52.26508356 -9.14669886 52.23289511 -12.23828125 52.1953125 C-13.55943184 52.19106766 -13.55943184 52.19106766 -14.90727234 52.18673706 C-17.70915545 52.17557833 -20.51071416 52.15048171 -23.3125 52.125 C-25.21679225 52.11496463 -27.12108952 52.10583975 -29.02539062 52.09765625 C-33.68371797 52.07565309 -38.34180406 52.04115294 -43 52 C-42.67 51.34 -42.34 50.68 -42 50 C-40.87505127 50.00523682 -39.75010254 50.01047363 -38.59106445 50.01586914 C-34.40715331 50.03400434 -30.22324563 50.04546314 -26.03930664 50.05493164 C-24.23038142 50.05995238 -22.42146024 50.06677029 -20.61254883 50.07543945 C-18.00861614 50.08760402 -15.40473723 50.09325098 -12.80078125 50.09765625 C-11.59268547 50.10539818 -11.59268547 50.10539818 -10.36018372 50.11329651 C-6.43527399 50.11368637 -2.83300018 49.97084755 1 49 C0.67 48.01 0.34 47.02 0 46 C0.4375 43.8125 0.4375 43.8125 1 42 C0.34 42 -0.32 42 -1 42 C-1.28875 41.030625 -1.5775 40.06125 -1.875 39.0625 C-2.64214682 35.89335797 -2.64214682 35.89335797 -5 35 C-4.34 37.31 -3.68 39.62 -3 42 C-5.64 42 -8.28 42 -11 42 C-11 42.99 -11 43.98 -11 45 C-17.27 44.67 -23.54 44.34 -30 44 C-30 40.37 -30 36.74 -30 33 C-14.82168331 32.58915835 -14.82168331 32.58915835 -8 36 C-8 34.68 -8 33.36 -8 32 C-8.99 31.67 -9.98 31.34 -11 31 C-11 30.01 -11 29.02 -11 28 C-12.65 27.67 -14.3 27.34 -16 27 C-16 25.02 -16 23.04 -16 21 C-20.95 21 -25.9 21 -31 21 C-31.09765625 10.94140625 -31.09765625 10.94140625 -31 8 C-30 7 -30 7 -28.23413086 6.88647461 C-27.48526611 6.89171143 -26.73640137 6.89694824 -25.96484375 6.90234375 C-25.15595703 6.90556641 -24.34707031 6.90878906 -23.51367188 6.91210938 C-22.66353516 6.92048828 -21.81339844 6.92886719 -20.9375 6.9375 C-20.08349609 6.94201172 -19.22949219 6.94652344 -18.34960938 6.95117188 C-16.23304337 6.96299627 -14.11651315 6.98093231 -12 7 C-11.70609375 6.21367188 -11.4121875 5.42734375 -11.109375 4.6171875 C-8.75960765 -0.92627773 -5.59335213 -1.74792254 0 0 Z " fill="#F99D21" transform="translate(419,100)"/>
<path d="M0 0 C8.58 0 17.16 0 26 0 C26 17.82 26 35.64 26 54 C18.08 54 10.16 54 2 54 C2 51.03 2 48.06 2 45 C4.64 45 7.28 45 10 45 C10 33.78 10 22.56 10 11 C6.7 11 3.4 11 0 11 C0 7.37 0 3.74 0 0 Z " fill="#FD9A15" transform="translate(342,98)"/>
<path d="M0 0 C1.29355408 -0.00960754 2.58710815 -0.01921509 3.91986084 -0.02911377 C5.35054344 -0.03397047 6.78122812 -0.03824713 8.21191406 -0.04199219 C9.29654308 -0.04623325 9.29654308 -0.04623325 10.4030838 -0.05056 C14.25277576 -0.06560574 18.10242996 -0.07479251 21.95214844 -0.07910156 C25.10005594 -0.08343863 28.24768198 -0.09713311 31.39550781 -0.12011719 C61.41536766 -0.33450161 61.41536766 -0.33450161 74.18066406 1.36425781 C74.97986267 1.46422058 75.77906128 1.56418335 76.60247803 1.66717529 C83.05536098 2.69941847 88.26333652 5.52217549 92.95019531 10.07910156 C95.23140067 14.70222877 94.55343926 20.16595637 93.97753906 25.16113281 C92.93007057 27.95438212 91.77514888 29.74559462 89.97753906 32.16113281 C89.64753906 32.16113281 89.31753906 32.16113281 88.97753906 32.16113281 C88.97753906 30.18113281 88.97753906 28.20113281 88.97753906 26.16113281 C89.96753906 25.83113281 90.95753906 25.50113281 91.97753906 25.16113281 C91.97753906 21.86113281 91.97753906 18.56113281 91.97753906 15.16113281 C90.98753906 14.66613281 90.98753906 14.66613281 89.97753906 14.16113281 C89.35253906 11.59863281 89.35253906 11.59863281 88.97753906 9.16113281 C87.98753906 8.83113281 86.99753906 8.50113281 85.97753906 8.16113281 C85.97753906 9.48113281 85.97753906 10.80113281 85.97753906 12.16113281 C84.32753906 12.16113281 82.67753906 12.16113281 80.97753906 12.16113281 C81.30753906 11.17113281 81.63753906 10.18113281 81.97753906 9.16113281 C81.54441406 9.65613281 81.11128906 10.15113281 80.66503906 10.66113281 C78.97753906 12.16113281 78.97753906 12.16113281 75.97753906 12.16113281 C75.64753906 13.48113281 75.31753906 14.80113281 74.97753906 16.16113281 C74.27628906 15.54238281 73.57503906 14.92363281 72.85253906 14.28613281 C67.74863456 10.51368166 63.02592148 9.90898031 56.77880859 9.84228516 C56.08542892 9.83223953 55.39204926 9.82219391 54.67765808 9.81184387 C52.40523035 9.78116323 50.13291961 9.76401938 47.86035156 9.74707031 C46.27707931 9.72834645 44.6938169 9.70877213 43.11056519 9.68838501 C38.95798567 9.63718637 34.80537384 9.59749527 30.65264893 9.5602417 C26.40930265 9.52012486 22.16608936 9.46906765 17.92285156 9.41894531 C9.60783844 9.32233141 1.29275918 9.23788046 -7.02246094 9.16113281 C-7.12011719 3.00878906 -7.12011719 3.00878906 -7.02246094 1.16113281 C-5.21384064 -0.64748748 -2.43630925 0.0145609 0 0 Z " fill="#F89C1E" transform="translate(350.0224609375,85.8388671875)"/>
<path d="M0 0 C5.67458978 1.92721917 9.32050871 5.64101742 12 11 C12.5238576 16.25575165 12.66505372 20.64526095 10.3125 25.4375 C7.01634339 29.08999787 3.69047167 32.73183207 -1.390625 33.23828125 C-7.50938276 33.39710147 -11.20589638 33.20945684 -16 29 C-16.763125 28.34 -17.52625 27.68 -18.3125 27 C-21.62190278 23.07774486 -21.28327021 18.3315281 -21.2109375 13.3984375 C-20.79176473 8.63228785 -18.39601324 6.23497597 -14.9375 3.25 C-9.96190624 -0.56109309 -6.14000237 -0.51087847 0 0 Z " fill="#F9F9F9" transform="translate(241,100)"/>
<path d="M0 0 C4.44108717 1.21120559 7.11112385 2.37498625 10 6 C10.92656473 11.2383738 10.45496937 16.4076072 9 21.5 C6.5848892 24.5188885 4.26673496 25.66883595 0.7421875 27.140625 C-1.18943397 27.87527816 -1.18943397 27.87527816 -2 30 C-0.96875 30.0825 0.0625 30.165 1.125 30.25 C5.36413089 31.07047695 7.63724801 32.34107982 11 35 C14.34008084 40.01012126 13.28230224 45.50633025 12.625 51.3125 C9.55951812 56.38233542 3.44180415 58.18606528 -2 60 C-4.28459674 60.08989374 -6.57179326 60.11757205 -8.8581543 60.11352539 C-9.55109589 60.11367142 -10.24403748 60.11381744 -10.95797729 60.1139679 C-13.24675637 60.11327163 -15.5354539 60.1054926 -17.82421875 60.09765625 C-19.41176814 60.09579106 -20.99931811 60.09436763 -22.58686829 60.09336853 C-26.7642272 60.08955134 -30.94155131 60.07972786 -35.11889648 60.06866455 C-39.38199391 60.05843328 -43.64509696 60.05386723 -47.90820312 60.04882812 C-56.27215138 60.03810489 -64.63607136 60.02103803 -73 60 C-73 62.97 -73 65.94 -73 69 C-73.66 69 -74.32 69 -75 69 C-75.1089913 62.35153095 -75.18922687 55.56318602 -74 49 C-73.34 48.34 -72.68 47.68 -72 47 C-72 49.97 -72 52.94 -72 56 C-64.08 56 -56.16 56 -48 56 C-48 38.18 -48 20.36 -48 2 C-47.67 2 -47.34 2 -47 2 C-47 20.48 -47 38.96 -47 58 C-46.34 58 -45.68 58 -45 58 C-45 39.52 -45 21.04 -45 2 C-44.67 2 -44.34 2 -44 2 C-44 19.82 -44 37.64 -44 56 C-36.86375 55.896875 -29.7275 55.79375 -22.375 55.6875 C-20.13251465 55.66260498 -17.8900293 55.63770996 -15.57958984 55.61206055 C-13.79001805 55.57975695 -12.00046515 55.5463813 -10.2109375 55.51171875 C-9.29159424 55.50547485 -8.37225098 55.49923096 -7.42504883 55.49279785 C-2.23691406 55.3768972 1.54823365 54.96361944 6 52 C8.42130331 48.36804504 8.21022785 46.61650652 8.125 42.3125 C8.10695313 41.13300781 8.08890625 39.95351562 8.0703125 38.73828125 C8.04710937 37.83464844 8.02390625 36.93101562 8 36 C7.22140625 35.69191406 6.4428125 35.38382813 5.640625 35.06640625 C3.99202092 34.40062383 2.35772298 33.69670252 0.75 32.9375 C-3.10181488 31.62438129 -6.95985361 31.33447835 -11 31 C-11 30.01 -11 29.02 -11 28 C-10.40832031 27.81824219 -9.81664062 27.63648437 -9.20703125 27.44921875 C-1.09898523 25.03874507 -1.09898523 25.03874507 4.8125 19.3125 C6.31614415 15.11812421 6.43670926 12.4398775 6 8 C3.97760828 4.62934713 0.64403167 4.05272026 -3 3 C-2.01 2.01 -1.02 1.02 0 0 Z " fill="#FDF3D6" transform="translate(416,96)"/>
<path d="M0 0 C3.47899158 1.39159663 4.48052501 2.63251488 6 6 C5.56099365 6.36795181 5.1219873 6.73590363 4.66967773 7.11500549 C-1.85850165 12.69775262 -7.88376105 18.7564226 -13.9375 24.83984375 C-15.06927864 25.97349143 -16.2012812 27.10691559 -17.33349609 28.24012756 C-20.28822011 31.19863851 -23.23992653 34.16014181 -26.190979 37.12231445 C-29.21271471 40.15434725 -32.23734394 43.18349067 -35.26171875 46.21289062 C-41.17728805 52.13912967 -47.08966729 58.06853842 -53 64 C-54.65 62.68 -56.3 61.36 -58 60 C-56.54758264 56.66765426 -54.7149914 54.45774394 -52.15625 51.890625 C-51.40472656 51.13652344 -50.65320313 50.38242187 -49.87890625 49.60546875 C-49.09386719 48.82816406 -48.30882813 48.05085938 -47.5 47.25 C-46.71496094 46.45722656 -45.92992188 45.66445313 -45.12109375 44.84765625 C-43.99380859 43.72423828 -43.99380859 43.72423828 -42.84375 42.578125 C-42.15474609 41.89137695 -41.46574219 41.20462891 -40.75585938 40.49707031 C-39 39 -39 39 -37 39 C-36.5978125 38.1028125 -36.5978125 38.1028125 -36.1875 37.1875 C-35.00082594 35.00152146 -33.90400887 33.58667406 -32 32 C-31.34 32 -30.68 32 -30 32 C-29.731875 31.401875 -29.46375 30.80375 -29.1875 30.1875 C-28.00082594 28.00152146 -26.90400887 26.58667406 -25 25 C-24.34 25 -23.68 25 -23 25 C-22.61328125 24.12601562 -22.61328125 24.12601562 -22.21875 23.234375 C-20.90165983 20.8197097 -19.44911616 19.18259823 -17.5 17.25 C-16.58734375 16.32960937 -16.58734375 16.32960937 -15.65625 15.390625 C-14 14 -14 14 -12 14 C-11.731875 13.401875 -11.46375 12.80375 -11.1875 12.1875 C-10.00082594 10.00152146 -8.90400887 8.58667406 -7 7 C-6.34 7 -5.68 7 -5 7 C-4.731875 6.401875 -4.46375 5.80375 -4.1875 5.1875 C-3.01506533 3.02775192 -1.80630718 1.64209744 0 0 Z " fill="#F3F3F3" transform="translate(130,234)"/>
<path d="M0 0 C21.78 0 43.56 0 66 0 C65.67 0.66 65.34 1.32 65 2 C68.96 2 72.92 2 77 2 C77 2.99 77 3.98 77 5 C72.08990864 6.58768656 67.99134479 7.24589998 62.77954102 7.22705078 C62.09576889 7.22734283 61.41199677 7.22763489 60.70750427 7.22793579 C58.47283735 7.22655503 56.2385141 7.21105393 54.00390625 7.1953125 C52.44449546 7.19157789 50.88508232 7.18873304 49.32566833 7.18673706 C45.24038099 7.17913582 41.15523801 7.15951786 37.07000732 7.1373291 C32.89369662 7.1167947 28.71736237 7.10771917 24.54101562 7.09765625 C16.36061116 7.07626833 8.18032359 7.04217524 0 7 C0 4.69 0 2.38 0 0 Z " fill="#FE9913" transform="translate(344,157)"/>
<path d="M0 0 C2.25259399 -0.36076355 2.25259399 -0.36076355 5.09228516 -0.34057617 C6.15323395 -0.34034958 7.21418274 -0.34012299 8.30728149 -0.33988953 C10.03076309 -0.31666374 10.03076309 -0.31666374 11.7890625 -0.29296875 C13.54940323 -0.28660149 13.54940323 -0.28660149 15.3453064 -0.28010559 C19.10543454 -0.26326976 22.86503297 -0.22560777 26.625 -0.1875 C29.16926311 -0.17245954 31.7135346 -0.15877003 34.2578125 -0.14648438 C40.50539005 -0.11335017 46.75265719 -0.06310206 53 0 C53 2.97 53 5.94 53 9 C34.85 9 16.7 9 -2 9 C-2 3 -2 3 0 0 Z " fill="#F9A32F" transform="translate(80,86)"/>
<path d="M0 0 C18.15 0 36.3 0 55 0 C55.495 5.445 55.495 5.445 56 11 C55.01 11.99 54.02 12.98 53 14 C53.33 10.37 53.66 6.74 54 3 C46.08 3 38.16 3 30 3 C30.03480469 6.5165625 30.06960937 10.033125 30.10546875 13.65625 C30.12889405 17.07844227 30.14709375 20.50062546 30.16479492 23.92285156 C30.17984099 26.29333523 30.20028273 28.66379125 30.22631836 31.03417969 C30.26288506 34.4499394 30.27976868 37.86532962 30.29296875 41.28125 C30.30845261 42.33364868 30.32393646 43.38604736 30.33988953 44.47033691 C30.34180323 52.91956709 28.86851633 59.91766728 23.01171875 66.3203125 C18.90054128 69.75294612 14.05066482 72.25548067 9 74 C6.61363493 73.70066501 5.14353984 73.07176992 3 72 C3.495 71.01 3.495 71.01 4 70 C5.66147797 69.64169866 7.32935809 69.31280104 9 69 C15.80590928 66.27344158 20.90354424 63.54535942 24.07382202 56.67182922 C25.0459975 53.86730687 25.27480244 51.7091027 25.31884766 48.75073242 C25.33871735 47.73005173 25.35858704 46.70937103 25.37905884 45.65776062 C25.39638565 44.02312614 25.39638565 44.02312614 25.4140625 42.35546875 C25.43342865 41.2305452 25.4527948 40.10562164 25.4727478 38.9466095 C25.5324371 35.36031634 25.57888694 31.77399091 25.625 28.1875 C25.66318953 25.75324136 25.70224183 23.31899608 25.7421875 20.88476562 C25.8397507 14.9232474 25.91940555 8.96186839 26 3 C17.42 3 8.84 3 0 3 C0 2.01 0 1.02 0 0 Z " fill="#FEF8E9" transform="translate(78,95)"/>
<path d="M0 0 C11.92689295 0.60574413 11.92689295 0.60574413 16 4 C17.97125294 7.94250588 17.44717024 12.70219715 17 17 C14.69523249 21.18272622 12.48932264 22.63597539 8 24 C4.91780111 24.26508356 1.85330114 24.23289511 -1.23828125 24.1953125 C-2.55943184 24.19106766 -2.55943184 24.19106766 -3.90727234 24.18673706 C-6.70915545 24.17557833 -9.51071416 24.15048171 -12.3125 24.125 C-14.21679225 24.11496463 -16.12108952 24.10583975 -18.02539062 24.09765625 C-22.68371797 24.07565309 -27.34180406 24.04115294 -32 24 C-31.67 23.34 -31.34 22.68 -31 22 C-29.87505127 22.00523682 -28.75010254 22.01047363 -27.59106445 22.01586914 C-23.40715331 22.03400434 -19.22324563 22.04546314 -15.03930664 22.05493164 C-13.23038142 22.05995238 -11.42146024 22.06677029 -9.61254883 22.07543945 C-7.00861614 22.08760402 -4.40473723 22.09325098 -1.80078125 22.09765625 C-0.59268547 22.10539818 -0.59268547 22.10539818 0.63981628 22.11329651 C4.56472601 22.11368637 8.16699982 21.97084755 12 21 C11.505 19.515 11.505 19.515 11 18 C11.4375 15.8125 11.4375 15.8125 12 14 C11.34 14 10.68 14 10 14 C9.71125 13.030625 9.4225 12.06125 9.125 11.0625 C8.35785318 7.89335797 8.35785318 7.89335797 6 7 C6.66 9.31 7.32 11.62 8 14 C5.36 14 2.72 14 0 14 C0 14.99 0 15.98 0 17 C-6.27 16.67 -12.54 16.34 -19 16 C-19 12.37 -19 8.74 -19 5 C-3.82168331 4.58915835 -3.82168331 4.58915835 3 8 C3 6.68 3 5.36 3 4 C2.01 3.67 1.02 3.34 0 3 C0 2.01 0 1.02 0 0 Z " fill="#F89C20" transform="translate(408,128)"/>
<path d="M0 0 C4.76887637 -0.02475064 9.53771521 -0.04288403 14.30664062 -0.05493164 C15.92839204 -0.05995505 17.55013895 -0.06677494 19.171875 -0.07543945 C21.50521969 -0.08759229 23.8385044 -0.09324828 26.171875 -0.09765625 C26.89493835 -0.10281754 27.61800171 -0.10797882 28.36297607 -0.11329651 C31.82886709 -0.11368125 34.60496249 0.15124062 38 1 C38 7.93 38 14.86 38 22 C41.96 22 45.92 22 50 22 C48.38262276 25.23475448 47.52370777 26.70572021 45 29 C46.32 29 47.64 29 49 29 C49 29.99 49 30.98 49 32 C48.34 32 47.68 32 47 32 C47 31.34 47 30.68 47 30 C40.07531874 28.59317566 33.13959721 27.26412914 26.1875 26 C25.23133789 25.82484863 24.27517578 25.64969727 23.29003906 25.46923828 C16.96431145 24.32153694 10.64316526 23.31024895 4.265625 22.4921875 C2 22 2 22 0 20 C0.375 17.375 0.375 17.375 1 15 C4.76300374 13.74566542 8.27210909 13.89304578 12.1875 13.9375 C12.93708984 13.94201172 13.68667969 13.94652344 14.45898438 13.95117188 C16.30602383 13.96293646 18.15302213 13.98087135 20 14 C20.33 16.31 20.66 18.62 21 21 C25.29 21.33 29.58 21.66 34 22 C34 15.73 34 9.46 34 3 C31.03 3 28.06 3 25 3 C23.68 2.67 22.36 2.34 21 2 C19.3413488 1.85701869 17.6789131 1.75458775 16.015625 1.68359375 C15.08105469 1.64169922 14.14648438 1.59980469 13.18359375 1.55664062 C12.21550781 1.51732422 11.24742187 1.47800781 10.25 1.4375 C9.26644531 1.39431641 8.28289062 1.35113281 7.26953125 1.30664062 C4.84648725 1.20077948 2.4233446 1.09869829 0 1 C0 0.67 0 0.34 0 0 Z " fill="#FEF1D5" transform="translate(489,95)"/>
<path d="M0 0 C0.33 0.66 0.66 1.32 1 2 C1.99 2 2.98 2 4 2 C4 1.34 4 0.68 4 0 C7.34180336 0.27848361 8.7278953 0.73135845 11.1484375 3.12109375 C14.73532225 8.69816983 13.56994991 15.9199927 12.6796875 22.29296875 C11.71731715 26.25618481 9.95270733 29.2160188 7 32 C4.25 32.3125 4.25 32.3125 2 32 C2 31.34 2 30.68 2 30 C1.34 30 0.68 30 0 30 C0.33 28.02 0.66 26.04 1 24 C-0.32 24.33 -1.64 24.66 -3 25 C-2.82210937 24.16726562 -2.64421875 23.33453125 -2.4609375 22.4765625 C-1.7862301 17.38766767 -2.50120027 12.54525783 -3.0390625 7.4609375 C-2.99721218 3.75299921 -2.55926482 2.58551369 0 0 Z " fill="#FC9B14" transform="translate(531,128)"/>
<path d="M0 0 C2.64 0 5.28 0 8 0 C8.3690205 18.82004556 8.3690205 18.82004556 6 28 C2.04 28 -1.92 28 -6 28 C-6 19.09 -6 10.18 -6 1 C-5.01 1 -4.02 1 -3 1 C-3.66 2.98 -4.32 4.96 -5 7 C-4.01 7 -3.02 7 -2 7 C-1.855625 6.401875 -1.71125 5.80375 -1.5625 5.1875 C-1.1127561 3.43849596 -0.57107659 1.71322977 0 0 Z " fill="#FB9B19" transform="translate(534,88)"/>
<path d="M0 0 C0.33 0 0.66 0 1 0 C1 2.64 1 5.28 1 8 C1.88505219 7.99555878 2.77010437 7.99111755 3.68197632 7.98654175 C12.0106793 7.94651693 20.33935012 7.91604208 28.66812706 7.89637566 C32.95034248 7.88592517 37.23247864 7.87174303 41.51464844 7.84912109 C45.64488126 7.82743762 49.77503769 7.81544091 53.90532303 7.81024551 C55.48343738 7.80654165 57.06154741 7.7993092 58.63962936 7.78853989 C60.84496951 7.77408451 63.04999142 7.77201952 65.25537109 7.77294922 C66.51223724 7.768508 67.76910339 7.76406677 69.0640564 7.75949097 C72 8 72 8 74 10 C71.69179492 11.15410254 70.39215724 11.1210297 67.82568359 11.11352539 C66.95290771 11.11340454 66.08013184 11.11328369 65.1809082 11.11315918 C64.26269287 11.10804321 63.34447754 11.10292725 62.3984375 11.09765625 C61.13350464 11.09614563 61.13350464 11.09614563 59.84301758 11.09460449 C56.68699792 11.08936476 53.53099762 11.07540353 50.375 11.0625 C43.32125 11.041875 36.2675 11.02125 29 11 C29 29.48 29 47.96 29 67 C28.34 67 27.68 67 27 67 C27 48.52 27 30.04 27 11 C18.09 11 9.18 11 0 11 C0 14.63 0 18.26 0 22 C-0.33 22 -0.66 22 -1 22 C-1.19466332 20.20909747 -1.38051213 18.41723495 -1.5625 16.625 C-1.66691406 15.62726563 -1.77132813 14.62953125 -1.87890625 13.6015625 C-2 11 -2 11 -1 9 C-0.77532169 7.46331135 -0.59203195 5.92031946 -0.4375 4.375 C-0.35371094 3.55773437 -0.26992188 2.74046875 -0.18359375 1.8984375 C-0.12300781 1.27195312 -0.06242187 0.64546875 0 0 Z " fill="#FEF7E4" transform="translate(342,87)"/>
<path d="M0 0 C9.22267087 -0.06941953 18.44525222 -0.12277008 27.66812706 -0.15543652 C31.95039452 -0.17111243 36.23248364 -0.19238549 40.51464844 -0.22631836 C44.6448912 -0.25884364 48.77496211 -0.2768385 52.90532303 -0.28463173 C54.48345268 -0.29018758 56.06157261 -0.30103646 57.63962936 -0.31719017 C59.84508561 -0.33887438 62.04982592 -0.34197082 64.25537109 -0.34057617 C65.51223724 -0.34723801 66.76910339 -0.35389984 68.0640564 -0.36076355 C69.51734848 -0.18218559 69.51734848 -0.18218559 71 0 C71.99 1.485 71.99 1.485 73 3 C71.68 3.66 70.36 4.32 69 5 C69 5.33 69 5.66 69 6 C66.69 6 64.38 6 62 6 C62 5.34 62 4.68 62 4 C63.32 3.67 64.64 3.34 66 3 C62.70924004 3.37904208 62.70924004 3.37904208 60 5 C58.03630847 5.0940067 56.06920801 5.11743381 54.10327148 5.11352539 C52.84203964 5.11344986 51.5808078 5.11337433 50.28135681 5.11329651 C48.89460206 5.1081891 47.50784771 5.10297309 46.12109375 5.09765625 C44.71004791 5.09579201 43.29900143 5.09436814 41.88795471 5.09336853 C38.16759465 5.08954379 34.4472734 5.0797139 30.72692871 5.06866455 C26.93319219 5.05844948 23.13944942 5.05387071 19.34570312 5.04882812 C11.89711769 5.03809158 4.44856428 5.0210157 -3 5 C-3 4.01 -3 3.02 -3 2 C-2.01 2 -1.02 2 0 2 C0 1.34 0 0.68 0 0 Z " fill="#FD9A14" transform="translate(348,88)"/>
<path d="M0 0 C0.33 0 0.66 0 1 0 C1 18.48 1 36.96 1 56 C15.85 56.33 30.7 56.66 46 57 C46 57.33 46 57.66 46 58 C22.57 58 -0.86 58 -25 58 C-25 60.97 -25 63.94 -25 67 C-25.66 67 -26.32 67 -27 67 C-27.1089913 60.35153095 -27.18922687 53.56318602 -26 47 C-25.34 46.34 -24.68 45.68 -24 45 C-24 47.97 -24 50.94 -24 54 C-16.08 54 -8.16 54 0 54 C0 36.18 0 18.36 0 0 Z M3 0 C3.33 0 3.66 0 4 0 C4 17.82 4 35.64 4 54 C17.2 54 30.4 54 44 54 C44 54.33 44 54.66 44 55 C30.47 55.33 16.94 55.66 3 56 C3 37.52 3 19.04 3 0 Z " fill="#FCDEAD" transform="translate(368,98)"/>
<path d="M0 0 C3.96 0 7.92 0 12 0 C12.33 2.64 12.66 5.28 13 8 C14.05960937 8.03738281 15.11921875 8.07476562 16.2109375 8.11328125 C17.59899424 8.17893258 18.98701349 8.24538021 20.375 8.3125 C21.07367188 8.33505859 21.77234375 8.35761719 22.4921875 8.38085938 C24.5234375 8.48828125 24.5234375 8.48828125 28 9 C28.99 10.485 28.99 10.485 30 12 C32.56282742 12.72965366 32.56282742 12.72965366 35 13 C35 13.66 35 14.32 35 15 C34.28972656 15.06058594 33.57945312 15.12117187 32.84765625 15.18359375 C31.92855469 15.26738281 31.00945312 15.35117188 30.0625 15.4375 C29.14597656 15.51871094 28.22945313 15.59992188 27.28515625 15.68359375 C25.03840268 15.76044976 25.03840268 15.76044976 24 17 C21.28135829 17.10113109 18.59348291 17.13863787 15.875 17.125 C15.12734375 17.12886719 14.3796875 17.13273437 13.609375 17.13671875 C12.86945313 17.13542969 12.12953125 17.13414062 11.3671875 17.1328125 C10.69800293 17.13168457 10.02881836 17.13055664 9.33935547 17.12939453 C6.20834281 16.95621182 3.10428218 16.44346888 0 16 C0 10.72 0 5.44 0 0 Z " fill="#FC9915" transform="translate(471,136)"/>
<path d="M0 0 C0.78826172 0.01353516 1.57652344 0.02707031 2.38867188 0.04101562 C4.32191169 0.07616544 6.25479682 0.12996639 8.1875 0.1875 C8.1875 0.5175 8.1875 0.8475 8.1875 1.1875 C7.06730469 1.24808594 5.94710938 1.30867188 4.79296875 1.37109375 C3.32030016 1.45551424 1.84764456 1.54016149 0.375 1.625 C-0.36298828 1.66431641 -1.10097656 1.70363281 -1.86132812 1.74414062 C-5.04321342 1.93131035 -7.77412378 2.17470793 -10.8125 3.1875 C-10.4825 4.8375 -10.1525 6.4875 -9.8125 8.1875 C-8.91007568 8.32849121 -8.00765137 8.46948242 -7.07788086 8.61474609 C-3.70215054 9.14429793 -0.32708902 9.67778161 3.04760742 10.21386719 C4.50309082 10.44426629 5.95881735 10.6731353 7.41479492 10.90039062 C9.51808758 11.22896255 11.620419 11.56318716 13.72265625 11.8984375 C14.984729 12.09743652 16.24680176 12.29643555 17.54711914 12.50146484 C21.20043805 13.18993819 24.63376636 14.11036834 28.1875 15.1875 C24.86215243 16.29594919 22.56567425 16.03204356 19.1875 15.1875 C20.1775 17.8275 21.1675 20.4675 22.1875 23.1875 C21.0428125 22.7853125 21.0428125 22.7853125 19.875 22.375 C9.69917161 19.09803832 -0.35910165 17.1991531 -10.93554688 15.7265625 C-16.45107916 14.90745728 -21.03259959 14.12384371 -25.8125 11.1875 C-25.8125 10.8575 -25.8125 10.5275 -25.8125 10.1875 C-23.8125 10.1875 -21.8125 10.1875 -19.8125 10.1875 C-19.8125 9.1975 -19.8125 8.2075 -19.8125 7.1875 C-18.8225 6.8575 -17.8325 6.5275 -16.8125 6.1875 C-16.4825 7.1775 -16.1525 8.1675 -15.8125 9.1875 C-15.1525 9.1875 -14.4925 9.1875 -13.8125 9.1875 C-13.915625 8.259375 -14.01875 7.33125 -14.125 6.375 C-13.8125 3.1875 -13.8125 3.1875 -11.84375 1.5 C-7.78600624 -0.25696121 -4.36451541 -0.14267905 0 0 Z " fill="#F4A93E" transform="translate(500.8125,107.8125)"/>
<path d="M0 0 C1.32 0.33 2.64 0.66 4 1 C4 2.65 4 4.3 4 6 C4.99 6.33 5.98 6.66 7 7 C7.37261821 14.57657022 7.37261821 14.57657022 5.625 16.5625 C5.08875 17.036875 4.5525 17.51125 4 18 C3.71125 19.175625 3.4225 20.35125 3.125 21.5625 C2 25 2 25 -0.625 26.4375 C-1.40875 26.623125 -2.1925 26.80875 -3 27 C-3 25.68 -3 24.36 -3 23 C-3.598125 23.185625 -4.19625 23.37125 -4.8125 23.5625 C-7 24 -7 24 -10 23 C-10 16.73 -10 10.46 -10 4 C-9.01 4 -8.02 4 -7 4 C-6.67 3.01 -6.34 2.02 -6 1 C-5.34 1 -4.68 1 -4 1 C-3.67 1.66 -3.34 2.32 -3 3 C-2.01 3.33 -1.02 3.66 0 4 C0 2.68 0 1.36 0 0 Z " fill="#FC9913" transform="translate(436,94)"/>
<path d="M0 0 C25.25 -0.5 25.25 -0.5 32 4 C32.3125 6.5 32.3125 6.5 32 9 C30 11 30 11 27.93701172 11.22705078 C26.69588623 11.21134033 26.69588623 11.21134033 25.4296875 11.1953125 C24.08583984 11.18564453 24.08583984 11.18564453 22.71484375 11.17578125 C21.77769531 11.15902344 20.84054687 11.14226562 19.875 11.125 C18.45767578 11.11146484 18.45767578 11.11146484 17.01171875 11.09765625 C14.67437173 11.07404668 12.33715451 11.03817494 10 11 C10 8.03 10 5.06 10 2 C6.7 2 3.4 2 0 2 C0 1.34 0 0.68 0 0 Z " fill="#FCF7E5" transform="translate(473,133)"/>
<path d="M0 0 C1.31292023 -0.00637985 2.62584045 -0.0127597 3.97854614 -0.01933289 C5.42824263 -0.02086349 6.87793961 -0.02197642 8.32763672 -0.02270508 C9.81485018 -0.02591987 11.30206332 -0.02928411 12.78927612 -0.03279114 C15.92169931 -0.03879708 19.05409489 -0.04063007 22.18652344 -0.04003906 C26.15904722 -0.03993855 30.13138773 -0.05346709 34.10386848 -0.07081127 C37.18582939 -0.08206597 40.2677483 -0.08395403 43.34972763 -0.08342934 C44.81103001 -0.08459406 46.27233403 -0.08892884 47.73361588 -0.0967617 C57.62377051 -0.14471758 67.12217394 0.59765451 76.88232422 2.14526367 C73.88232422 4.14526367 73.88232422 4.14526367 71.65486145 3.77735901 C70.73992416 3.56876755 69.82498688 3.36017609 68.88232422 3.14526367 C66.43002439 3.05879788 63.97554866 3.02755801 61.52172852 3.03173828 C60.43798698 3.03151924 60.43798698 3.03151924 59.33235168 3.03129578 C56.957051 3.03198945 54.58182987 3.03975622 52.20654297 3.04760742 C50.5545913 3.04947354 48.90263907 3.05089653 47.25068665 3.05189514 C42.9122463 3.05570506 38.57383967 3.06552229 34.2354126 3.07659912 C29.80457007 3.08684607 25.37372207 3.09139979 20.94287109 3.09643555 C12.2560067 3.10714596 3.56916966 3.12420402 -5.11767578 3.14526367 C-5.44767578 4.79526367 -5.77767578 6.44526367 -6.11767578 8.14526367 C15.33232422 8.14526367 36.78232422 8.14526367 58.88232422 8.14526367 C58.88232422 8.47526367 58.88232422 8.80526367 58.88232422 9.14526367 C37.10232422 9.14526367 15.32232422 9.14526367 -7.11767578 9.14526367 C-7.11767578 0.02337785 -7.11767578 0.02337785 0 0 Z " fill="#F5B459" transform="translate(350.11767578125,85.854736328125)"/>
<path d="M0 0 C0.33 0 0.66 0 1 0 C1.33 15.84 1.66 31.68 2 48 C2.33 32.16 2.66 16.32 3 0 C3.33 0 3.66 0 4 0 C4.07633598 6.97421219 4.12871974 13.94831579 4.16479492 20.92285156 C4.17984099 23.29333523 4.20028273 25.66379125 4.22631836 28.03417969 C4.26288506 31.4499394 4.27976868 34.86532962 4.29296875 38.28125 C4.30845261 39.33364868 4.32393646 40.38604736 4.33988953 41.47033691 C4.34180323 49.91956709 2.86851633 56.91766728 -2.98828125 63.3203125 C-7.09945872 66.75294612 -11.94933518 69.25548067 -17 71 C-19.38636507 70.70066501 -20.85646016 70.07176992 -23 69 C-22.505 68.01 -22.505 68.01 -22 67 C-20.33852203 66.64169866 -18.67064191 66.31280104 -17 66 C-10.19409072 63.27344158 -5.09645576 60.54535942 -1.92617798 53.67182922 C-0.9540025 50.86730687 -0.72519756 48.7091027 -0.68115234 45.75073242 C-0.66128265 44.73005173 -0.64141296 43.70937103 -0.62094116 42.65776062 C-0.60361435 41.02312614 -0.60361435 41.02312614 -0.5859375 39.35546875 C-0.56657135 38.2305452 -0.5472052 37.10562164 -0.5272522 35.9466095 C-0.4675629 32.36031634 -0.42111306 28.77399091 -0.375 25.1875 C-0.33681047 22.75324136 -0.29775817 20.31899608 -0.2578125 17.88476562 C-0.16187002 11.92329595 -0.07679125 5.96174547 0 0 Z " fill="#FBE2B6" transform="translate(104,98)"/>
<path d="M0 0 C0.66 0 1.32 0 2 0 C2.02505615 1.13018555 2.0501123 2.26037109 2.07592773 3.42480469 C2.17016956 7.62185817 2.27034926 11.81875263 2.37231445 16.015625 C2.41559986 17.83134234 2.45727944 19.64709871 2.49731445 21.46289062 C2.55517202 24.07433833 2.61882172 26.68559077 2.68359375 29.296875 C2.70030624 30.10743347 2.71701874 30.91799194 2.73423767 31.75311279 C2.82771396 35.31724723 3.04624584 38.56687935 4 42 C3.195625 42.12375 2.39125 42.2475 1.5625 42.375 C0.716875 42.58125 -0.12875 42.7875 -1 43 C-1.33 43.66 -1.66 44.32 -2 45 C-1.01 45 -0.02 45 1 45 C1 45.66 1 46.32 1 47 C1.66 47.33 2.32 47.66 3 48 C3 48.99 3 49.98 3 51 C6.465 50.505 6.465 50.505 10 50 C5.88856657 53.61307786 1.37240505 57 -4.3125 57 C-6 56 -6 56 -7.3125 53.75 C-8.08784699 50.64861202 -8.13064803 48.98814123 -7 46 C-5.67532254 45.3162955 -4.34136367 44.65035814 -3 44 C-0.51856842 39.50343507 -0.65574732 34.98008703 -0.5859375 29.98046875 C-0.56657135 29.12189774 -0.5472052 28.26332672 -0.5272522 27.3787384 C-0.46768444 24.64842526 -0.42116266 21.91806943 -0.375 19.1875 C-0.33679921 17.33136227 -0.29774625 15.47524188 -0.2578125 13.61914062 C-0.16200173 9.07956856 -0.07788679 4.53991354 0 0 Z " fill="#F89D20" transform="translate(87,109)"/>
<path d="M0 0 C0 3 0 3 -2.44921875 5.7421875 C-3.5211532 6.79414802 -4.60095717 7.83813498 -5.6875 8.875 C-6.21794922 9.39191406 -6.74839844 9.90882813 -7.29492188 10.44140625 C-8.30345019 11.42394794 -9.31504917 12.40335573 -10.33081055 13.37841797 C-12.57813043 15.56164141 -14.78722246 17.7817807 -17 20 C-17.95819331 20.95847334 -18.91653193 21.91680142 -19.875 22.875 C-20.37902344 23.37902344 -20.88304688 23.88304687 -21.40234375 24.40234375 C-43.6015625 46.6015625 -65.80078125 68.80078125 -88 91 C-88.33 90.34 -88.66 89.68 -89 89 C-87.88625 87.9171875 -87.88625 87.9171875 -86.75 86.8125 C-84.03305551 84.14127166 -84.03305551 84.14127166 -82.0625 81.5 C-80.10512281 79.12742159 -78.02207271 77.35473984 -75.62890625 75.44140625 C-73.77167702 73.7979588 -72.22629874 72.01810716 -70.625 70.125 C-67.60587231 66.5703286 -64.3312393 63.59803557 -60.77734375 60.58984375 C-58.55811043 58.60472735 -56.84206006 56.33327607 -55 54 C-53.52748254 52.78357253 -52.05393969 51.56815176 -50.5625 50.375 C-48.89219616 48.90513262 -47.53657787 47.34344262 -46.125 45.625 C-43.41767897 42.36358995 -40.43825785 39.69786128 -37.21484375 36.95703125 C-32.94177872 33.18136004 -29.00079881 29.0595381 -25 25 C-23.33462482 23.33204284 -21.66797952 21.66535278 -20 20 C-19.2471875 19.2471875 -18.494375 18.494375 -17.71875 17.71875 C-11.8125 11.8125 -5.90625 5.90625 0 0 Z " fill="#1A1A1A" transform="translate(141,200)"/>
<path d="M0 0 C2.0622048 -0.054348 4.12482816 -0.09294961 6.1875 -0.125 C7.33605469 -0.14820313 8.48460937 -0.17140625 9.66796875 -0.1953125 C13.13010553 0.00762635 16.44646321 0.44646321 19 3 C19.3125 5.375 19.3125 5.375 19 8 C16.48721232 10.70460353 15.05403171 10.99568896 11.328125 11.29296875 C9.96843965 11.27316751 8.6089066 11.23759202 7.25 11.1875 C6.55261719 11.17396484 5.85523438 11.16042969 5.13671875 11.14648438 C3.42414459 11.1112945 1.71197059 11.05749155 0 11 C0 7.37 0 3.74 0 0 Z " fill="#FDF4E2" transform="translate(389,133)"/>
<path d="M0 0 C2.93453261 0.36681658 3.86437246 0.86437246 6 3 C6 6 6 6 4.6015625 7.47265625 C3.94929688 7.99730469 3.29703125 8.52195313 2.625 9.0625 C-2.56668419 13.39820759 -7.26437971 18.17704245 -12 23 C-15.875 21.234375 -15.875 21.234375 -17 19.125 C-17 17 -17 17 -15.1875 14.75 C-13 13 -13 13 -11 13 C-11 12.34 -11 11.68 -11 11 C-10.34 11 -9.68 11 -9 11 C-8.731875 10.360625 -8.46375 9.72125 -8.1875 9.0625 C-7 7 -7 7 -4 6 C-2.90833725 4.06669397 -2.90833725 4.06669397 -2 2 C-1.34 1.34 -0.68 0.68 0 0 Z " fill="#F4F4F4" transform="translate(161,203)"/>
<path d="M0 0 C4.95 0.33 9.9 0.66 15 1 C15 1.33 15 1.66 15 2 C11.04 2 7.08 2 3 2 C3 2.66 3 3.32 3 4 C6.3 4 9.6 4 13 4 C13 4.33 13 4.66 13 5 C8.71 5 4.42 5 0 5 C0 10.61 0 16.22 0 22 C14.85 22.495 14.85 22.495 30 23 C30 23.33 30 23.66 30 24 C23.73 24.33 17.46 24.66 11 25 C11 25.33 11 25.66 11 26 C5.70518291 26.09289153 1.35789122 25.76541303 -4 25 C-4 18.4 -4 11.8 -4 5 C-8.62 5 -13.24 5 -18 5 C-18 4.67 -18 4.34 -18 4 C-12.06 3.67 -6.12 3.34 0 3 C0 2.01 0 1.02 0 0 Z " fill="#FCE6BC" transform="translate(470,131)"/>
<path d="M0 0 C2.24940295 -0.08119503 4.49964871 -0.13927819 6.75 -0.1875 C8.00296875 -0.22230469 9.2559375 -0.25710937 10.546875 -0.29296875 C14.14109357 0.01197061 15.44725126 0.54394629 18 3 C17.74438677 5.3431213 17.40729228 7.67843403 17 10 C13.93466836 11.53266582 10.73245728 11.10276471 7.375 11.0625 C6.66859375 11.05798828 5.9621875 11.05347656 5.234375 11.04882812 C3.48954725 11.03703875 1.744763 11.01910324 0 11 C0 7.37 0 3.74 0 0 Z " fill="#FCFDFA" transform="translate(389,108)"/>
<path d="M0 0 C8.58 0 17.16 0 26 0 C26 17.82 26 35.64 26 54 C24.68 53.67 23.36 53.34 22 53 C22.66 52.34 23.32 51.68 24 51 C24.33069425 48.77803673 24.33069425 48.77803673 24.31884766 46.18310547 C24.33871735 45.18221893 24.35858704 44.1813324 24.37905884 43.15011597 C24.39638565 41.52506638 24.39638565 41.52506638 24.4140625 39.8671875 C24.43342865 38.76021515 24.4527948 37.6532428 24.4727478 36.51272583 C24.53266754 32.96689631 24.57897873 29.42103455 24.625 25.875 C24.66316835 23.47524603 24.70221939 21.07550592 24.7421875 18.67578125 C24.84004532 12.78392512 24.91951674 6.89222193 25 1 C17.41 1 9.82 1 2 1 C2 3.64 2 6.28 2 9 C3.670625 8.9690625 3.670625 8.9690625 5.375 8.9375 C9 9 9 9 11 10 C11 21.55 11 33.1 11 45 C10.67 45 10.34 45 10 45 C10 33.78 10 22.56 10 11 C6.7 11 3.4 11 0 11 C0 7.37 0 3.74 0 0 Z " fill="#F2A43E" transform="translate(342,98)"/>
<path d="M0 0 C0.33 0 0.66 0 1 0 C1 2.64 1 5.28 1 8 C10.1096742 7.89265709 19.21926354 7.78005651 28.3287878 7.66066074 C32.55827614 7.60539313 36.78777133 7.55196715 41.01733398 7.50268555 C45.09574663 7.45509841 49.17407262 7.40275792 53.25238228 7.34705925 C54.81175148 7.32661 56.37114446 7.30790125 57.93055534 7.29092598 C60.1073559 7.26693856 62.28399124 7.23687681 64.46069336 7.20532227 C65.70201523 7.18977798 66.9433371 7.1742337 68.22227478 7.15821838 C70.90743216 7.31448486 70.90743216 7.31448486 72 6 C74.02408755 6.09002398 76.04544287 6.24641038 78.0625 6.4375 C79.71958984 6.59025391 79.71958984 6.59025391 81.41015625 6.74609375 C82.26480469 6.82988281 83.11945313 6.91367188 84 7 C84 7.33 84 7.66 84 8 C70.19462399 9.57528373 56.58982369 10.29475319 42.69628906 10.20581055 C39.73754272 10.18742258 36.77911049 10.18530299 33.8203125 10.18554688 C22.51338007 10.16405482 11.27743934 9.81968006 0 9 C0 6.03 0 3.06 0 0 Z " fill="#EFA948" transform="translate(343,156)"/>
<path d="M0 0 C0.78826172 0.01353516 1.57652344 0.02707031 2.38867188 0.04101562 C4.32191169 0.07616544 6.25479682 0.12996639 8.1875 0.1875 C8.1875 0.5175 8.1875 0.8475 8.1875 1.1875 C7.06730469 1.24808594 5.94710938 1.30867188 4.79296875 1.37109375 C3.32030016 1.45551424 1.84764456 1.54016149 0.375 1.625 C-0.36298828 1.66431641 -1.10097656 1.70363281 -1.86132812 1.74414062 C-5.04321342 1.93131035 -7.77412378 2.17470793 -10.8125 3.1875 C-10.54215366 5.62467258 -10.54215366 5.62467258 -9.8125 8.1875 C-8.8225 8.8475 -7.8325 9.5075 -6.8125 10.1875 C-6.8125 10.8475 -6.8125 11.5075 -6.8125 12.1875 C-8.4625 12.5175 -10.1125 12.8475 -11.8125 13.1875 C-11.08546875 13.29707031 -10.3584375 13.40664062 -9.609375 13.51953125 C-2.22367683 14.68419904 4.96302138 16.26609611 12.1875 18.1875 C9.00900253 19.19875762 6.81005225 19.13582941 3.5546875 18.48046875 C2.66523438 18.30580078 1.77578125 18.13113281 0.859375 17.95117188 C-0.06359375 17.76103516 -0.9865625 17.57089844 -1.9375 17.375 C-2.83726562 17.19646484 -3.73703125 17.01792969 -4.6640625 16.83398438 C-6.47566096 16.47348669 -8.28590963 16.10613789 -10.09472656 15.73193359 C-11.93004866 15.36427565 -13.77105269 15.0240686 -15.61621094 14.70947266 C-16.5034082 14.55397949 -17.39060547 14.39848633 -18.3046875 14.23828125 C-19.09987793 14.10719971 -19.89506836 13.97611816 -20.71435547 13.84106445 C-23.12855436 13.08905021 -24.19314812 12.09405156 -25.8125 10.1875 C-23.8125 10.1875 -21.8125 10.1875 -19.8125 10.1875 C-19.8125 9.1975 -19.8125 8.2075 -19.8125 7.1875 C-18.8225 6.8575 -17.8325 6.5275 -16.8125 6.1875 C-16.4825 7.1775 -16.1525 8.1675 -15.8125 9.1875 C-15.1525 9.1875 -14.4925 9.1875 -13.8125 9.1875 C-13.915625 8.259375 -14.01875 7.33125 -14.125 6.375 C-13.8125 3.1875 -13.8125 3.1875 -11.84375 1.5 C-7.78600624 -0.25696121 -4.36451541 -0.14267905 0 0 Z " fill="#F4A233" transform="translate(500.8125,107.8125)"/>
<path d="M0 0 C1.216875 0.28875 2.43375 0.5775 3.6875 0.875 C9.74164275 2.22896164 15.86368138 3.10847921 22 4 C18.89013793 6.07324138 18.10891613 6.27392186 14.5625 6.25 C13.80066406 6.25515625 13.03882813 6.2603125 12.25390625 6.265625 C9.78556982 5.9747292 8.142314 5.22975656 6 4 C6 5.32 6 6.64 6 8 C8.97 8 11.94 8 15 8 C15 8.66 15 9.32 15 10 C16.03060547 9.94779297 16.03060547 9.94779297 17.08203125 9.89453125 C17.98308594 9.86746094 18.88414062 9.84039062 19.8125 9.8125 C21.15248047 9.76029297 21.15248047 9.76029297 22.51953125 9.70703125 C25 10 25 10 26.8125 11.3125 C28.58043356 13.82482663 28.19885058 16.0172413 28 19 C27.67 19 27.34 19 27 19 C27 17.35 27 15.7 27 14 C15.36743887 11.56720041 3.81109623 9.36006563 -8 8 C-8 7.67 -8 7.34 -8 7 C-4.37 7 -0.74 7 3 7 C3 6.34 3 5.68 3 5 C2.34 4.67 1.68 4.34 1 4 C0.375 1.9375 0.375 1.9375 0 0 Z " fill="#F99D25" transform="translate(478,123)"/>
<path d="M0 0 C1.65 0 3.3 0 5 0 C5 0.33 5 0.66 5 1 C6.05960937 0.98839844 7.11921875 0.97679688 8.2109375 0.96484375 C9.59895658 0.95546524 10.98697755 0.94636511 12.375 0.9375 C13.07367188 0.92912109 13.77234375 0.92074219 14.4921875 0.91210938 C19.7734375 0.88671875 19.7734375 0.88671875 22 2 C22 2.99 22 3.98 22 5 C24.31 5 26.62 5 29 5 C27.875 7 27.875 7 26 9 C22.8125 9.25 22.8125 9.25 20 9 C19.67 8.01 19.34 7.02 19 6 C15.7 6 12.4 6 9 6 C9 5.34 9 4.68 9 4 C6.03 4 3.06 4 0 4 C0 2.68 0 1.36 0 0 Z " fill="#FC9A13" transform="translate(484,127)"/>
<path d="M0 0 C0.33 0 0.66 0 1 0 C1.02696365 1.79158489 1.04637917 3.58328473 1.0625 5.375 C1.07410156 6.37273437 1.08570313 7.37046875 1.09765625 8.3984375 C1 11 1 11 0 13 C2.31 13 4.62 13 7 13 C7 14.65 7 16.3 7 18 C4.03 18.33 1.06 18.66 -2 19 C-1.67 20.32 -1.34 21.64 -1 23 C-4.63 22.67 -8.26 22.34 -12 22 C-11 19 -11 19 -8.0625 17.3125 C-5 16 -5 16 -3 16 C-0.91613111 10.72086547 -0.42089996 5.60461531 0 0 Z " fill="#F79F26" transform="translate(426,104)"/>
<path d="M0 0 C8.58 0 17.16 0 26 0 C26.09203473 7.1173521 26.17161602 14.23262372 26.21972656 21.35009766 C26.23979065 23.7691143 26.26704843 26.18808276 26.30175781 28.60693359 C26.35050341 32.09224368 26.37302164 35.57691016 26.390625 39.0625 C26.41127014 40.13677246 26.43191528 41.21104492 26.45318604 42.31787109 C26.45516993 49.01867882 25.48989181 53.2519429 22 59 C21.34 57.68 20.68 56.36 20 55 C21.485 54.505 21.485 54.505 23 54 C24.12640855 51.07324845 24.14920191 48.15852267 24.20532227 45.04785156 C24.22526749 44.06713684 24.24521271 43.08642212 24.26576233 42.07598877 C24.29083107 40.4992337 24.29083107 40.4992337 24.31640625 38.890625 C24.33718735 37.80867859 24.35796844 36.72673218 24.37937927 35.61199951 C24.44472931 32.15806387 24.50369229 28.70405263 24.5625 25.25 C24.60569904 22.90754429 24.64931378 20.5650962 24.69335938 18.22265625 C24.80117755 12.48184717 24.90035965 6.74098017 25 1 C17.08 1 9.16 1 1 1 C1.33 3.64 1.66 6.28 2 9 C4.31 9.33 6.62 9.66 9 10 C9 10.33 9 10.66 9 11 C6.03 11 3.06 11 0 11 C0 7.37 0 3.74 0 0 Z " fill="#F0A73C" transform="translate(78,98)"/>
<path d="M0 0 C1.43880051 0.00503077 2.87760274 0.00959086 4.31640625 0.01367188 C7.79430751 0.02453936 11.27214217 0.04171472 14.75 0.0625 C14.75 0.3925 14.75 0.7225 14.75 1.0625 C13.70042114 1.10008423 13.70042114 1.10008423 12.62963867 1.13842773 C9.39880582 1.25587867 6.16816098 1.37791636 2.9375 1.5 C1.83728516 1.53931641 0.73707031 1.57863281 -0.39648438 1.61914062 C-3.68243622 1.74515058 -6.96586578 1.89589557 -10.25 2.0625 C-11.83820557 2.13815186 -11.83820557 2.13815186 -13.45849609 2.21533203 C-14.44543457 2.27962402 -15.43237305 2.34391602 -16.44921875 2.41015625 C-17.32795654 2.46308838 -18.20669434 2.51602051 -19.11206055 2.57055664 C-21.63280416 2.8930261 -21.63280416 2.8930261 -23.25 6.0625 C-25.34375 6.5390625 -25.34375 6.5390625 -27.75 6.6875 C-31.12761268 6.88712241 -31.12761268 6.88712241 -34.25 8.0625 C-34.25 7.0725 -34.25 6.0825 -34.25 5.0625 C-36.56 5.3925 -38.87 5.7225 -41.25 6.0625 C-38.92880932 3.74130932 -37.51140244 3.36819256 -34.375 2.5 C-33.51132812 2.25121094 -32.64765625 2.00242187 -31.7578125 1.74609375 C-21.2883853 -0.29416211 -10.61996328 -0.06543339 0 0 Z " fill="#F7AF4C" transform="translate(503.25,83.9375)"/>
<path d="M0 0 C0.66 0 1.32 0 2 0 C2.02505615 1.13018555 2.0501123 2.26037109 2.07592773 3.42480469 C2.17016956 7.62185817 2.27034926 11.81875263 2.37231445 16.015625 C2.41559986 17.83134234 2.45727944 19.64709871 2.49731445 21.46289062 C2.55517202 24.07433833 2.61882172 26.68559077 2.68359375 29.296875 C2.70030624 30.10743347 2.71701874 30.91799194 2.73423767 31.75311279 C2.82771396 35.31724723 3.04624584 38.56687935 4 42 C1.525 42.495 1.525 42.495 -1 43 C-1.33 43.99 -1.66 44.98 -2 46 C-3.32 45.67 -4.64 45.34 -6 45 C-4.515 44.505 -4.515 44.505 -3 44 C-0.44143066 39.59751845 -0.65500243 34.92673982 -0.5859375 29.98046875 C-0.56657135 29.12189774 -0.5472052 28.26332672 -0.5272522 27.3787384 C-0.46768444 24.64842526 -0.42116266 21.91806943 -0.375 19.1875 C-0.33679921 17.33136227 -0.29774625 15.47524188 -0.2578125 13.61914062 C-0.16200173 9.07956856 -0.07788679 4.53991354 0 0 Z " fill="#F8B453" transform="translate(87,109)"/>
<path d="M0 0 C0 3 0 3 -1.03694153 4.66621399 C-3.996384 6.67698597 -6.95625832 6.39308446 -10.40893555 6.34057617 C-11.16039856 6.34101425 -11.91186157 6.34145233 -12.68609619 6.34190369 C-15.16990137 6.33981367 -17.6530315 6.31647326 -20.13671875 6.29296875 C-21.85878633 6.28737354 -23.58085868 6.28310309 -25.30293274 6.28010559 C-29.83551212 6.26865091 -34.36780312 6.23917845 -38.90026855 6.20599365 C-43.52526956 6.17530615 -48.15031716 6.16160308 -52.77539062 6.14648438 C-61.85038712 6.11430928 -70.92516958 6.06310545 -80 6 C-80 5.67 -80 5.34 -80 5 C-79.14524078 4.99635437 -78.29048157 4.99270874 -77.40982056 4.98895264 C-69.31882787 4.95094374 -61.228233 4.89394577 -53.13752174 4.81609726 C-48.97887313 4.77673977 -44.82043253 4.7444943 -40.66162109 4.72900391 C-36.64130886 4.71375933 -32.62156897 4.67917783 -28.60151291 4.63169098 C-27.0747312 4.61695699 -25.54786773 4.60896361 -24.02101517 4.60811615 C-15.32741522 4.59844603 -7.83142205 4.13956108 0 0 Z " fill="#F69C28" transform="translate(424,151)"/>
<path d="M0 0 C5.20989319 1.36449584 8.12838582 3.39849844 12 7 C14.20552233 11.41104466 13.43889407 17.20066484 13 22 C11.96138621 24.8028966 10.80112664 26.57973607 9 29 C8.67 29 8.34 29 8 29 C8 27.02 8 25.04 8 23 C8.99 22.67 9.98 22.34 11 22 C11 18.7 11 15.4 11 12 C10.34 11.67 9.68 11.34 9 11 C8.375 8.4375 8.375 8.4375 8 6 C7.01 5.67 6.02 5.34 5 5 C5 6.32 5 7.64 5 9 C3.35 9 1.7 9 0 9 C-1.125 3.375 -1.125 3.375 0 0 Z " fill="#F79E23" transform="translate(431,89)"/>
<path d="M0 0 C0.33 0 0.66 0 1 0 C1 2.31 1 4.62 1 7 C1.66 7 2.32 7 3 7 C3.33 6.01 3.66 5.02 4 4 C3.67 11.92 3.34 19.84 3 28 C4.98 28 6.96 28 9 28 C9 28.33 9 28.66 9 29 C6.69 29 4.38 29 2 29 C1.67 23.72 1.34 18.44 1 13 C0.34 15.31 -0.32 17.62 -1 20 C-4.09677419 23 -4.09677419 23 -7 23 C-7 23.99 -7 24.98 -7 26 C-9.97 26 -12.94 26 -16 26 C-13.05836929 24.03891286 -10.14759763 22.64228832 -6.9375 21.1953125 C-4.47298275 19.67486436 -3.41707684 18.54990228 -2 16 C-1.47568667 13.20740067 -1.08345394 10.56394368 -0.8125 7.75 C-0.73064453 7.00492188 -0.64878906 6.25984375 -0.56445312 5.4921875 C-0.36508006 3.66264644 -0.18101526 1.83144849 0 0 Z " fill="#FDEECB" transform="translate(447,137)"/>
<path d="M0 0 C0 0.33 0 0.66 0 1 C4.62 1.66 9.24 2.32 14 3 C14 3.66 14 4.32 14 5 C14.66 5.33 15.32 5.66 16 6 C16 6.66 16 7.32 16 8 C11.20374653 7.53882178 6.7264271 6.72420622 2.0625 5.5 C-1.68732529 4.51620553 -5.2635519 3.77949621 -9.125 3.4375 C-13 3 -13 3 -15 1 C-9.91913204 0.15318867 -5.15171623 -0.09038099 0 0 Z " fill="#FA9A14" transform="translate(502,119)"/>
<path d="M0 0 C5.28 0 10.56 0 16 0 C16 1.98 16 3.96 16 6 C14.08364783 6.05423638 12.16685075 6.09289963 10.25 6.125 C8.64898437 6.15980469 8.64898437 6.15980469 7.015625 6.1953125 C4.07529894 6.00487687 2.47638122 5.52670104 0 4 C0 2.68 0 1.36 0 0 Z " fill="#FCFDFB" transform="translate(491,111)"/>
<path d="M0 0 C0.73347656 0.16242188 1.46695313 0.32484375 2.22265625 0.4921875 C3.9375 1.125 3.9375 1.125 4.9375 3.125 C4.22706543 3.05933838 3.51663086 2.99367676 2.78466797 2.92602539 C-9.77102975 1.89252918 -22.34678051 1.78037867 -34.9375 1.5625 C-37.28255833 1.51921709 -39.62761051 1.47560002 -41.97265625 1.43164062 C-47.66920573 1.32557403 -53.36581723 1.22363405 -59.0625 1.125 C-59.0625 0.795 -59.0625 0.465 -59.0625 0.125 C-52.97936348 -0.01890709 -46.89619336 -0.16126688 -40.81298828 -0.30224609 C-38.74722334 -0.35033217 -36.68146787 -0.3988275 -34.61572266 -0.44775391 C-31.63186048 -0.51835229 -28.64796633 -0.58743703 -25.6640625 -0.65625 C-24.29781235 -0.68906067 -24.29781235 -0.68906067 -22.90396118 -0.72253418 C-4.80716922 -1.13417786 -4.80716922 -1.13417786 0 0 Z " fill="#FEF5D7" transform="translate(421.0625,84.875)"/>
<path d="M0 0 C-0.33 3.63 -0.66 7.26 -1 11 C-1.66 11 -2.32 11 -3 11 C-3 11.99 -3 12.98 -3 14 C-0.13275314 13.42655063 0.8614515 13.1385485 3 11 C3 12.65 3 14.3 3 16 C1.68 15.67 0.36 15.34 -1 15 C-1.33 15.66 -1.66 16.32 -2 17 C-4.88375157 14.11624843 -6.31825682 11.98885835 -6.5 7.9375 C-6 4 -6 4 -4.125 1.5 C-2 0 -2 0 0 0 Z " fill="#F89A20" transform="translate(476,101)"/>
<path d="M0 0 C-0.33 0.66 -0.66 1.32 -1 2 C-4.12007108 3.04002369 -6.31395606 3.1291213 -9.5859375 3.1328125 C-10.68164062 3.13410156 -11.77734375 3.13539063 -12.90625 3.13671875 C-14.0509375 3.13285156 -15.195625 3.12898437 -16.375 3.125 C-17.51195312 3.12886719 -18.64890625 3.13273438 -19.8203125 3.13671875 C-20.91859375 3.13542969 -22.016875 3.13414062 -23.1484375 3.1328125 C-24.15052246 3.13168457 -25.15260742 3.13055664 -26.18505859 3.12939453 C-28.89238717 3.00494664 -31.36304428 2.6075073 -34 2 C-34 1.67 -34 1.34 -34 1 C-30.20848522 0.82975764 -26.41676908 0.66447298 -22.625 0.5 C-21.56410156 0.45230469 -20.50320313 0.40460938 -19.41015625 0.35546875 C-12.93495128 0.07739246 -6.48105849 -0.06533691 0 0 Z " fill="#FEFCE9" transform="translate(510,154)"/>
<path d="M0 0 C2.24940295 -0.08119503 4.49964871 -0.13927819 6.75 -0.1875 C8.00296875 -0.22230469 9.2559375 -0.25710937 10.546875 -0.29296875 C14.14109357 0.01197061 15.44725126 0.54394629 18 3 C17.74438677 5.3431213 17.40729228 7.67843403 17 10 C13.93466836 11.53266582 10.73245728 11.10276471 7.375 11.0625 C6.66859375 11.05798828 5.9621875 11.05347656 5.234375 11.04882812 C3.48954725 11.03703875 1.744763 11.01910324 0 11 C0 7.37 0 3.74 0 0 Z M1 1 C1 3.97 1 6.94 1 10 C5.29 10 9.58 10 14 10 C14 8.68 14 7.36 14 6 C14.66 6 15.32 6 16 6 C16.18932193 3.94766401 16.18932193 3.94766401 14.88671875 2.38671875 C12.17729352 0.39531925 10.12950711 0.70549977 6.8125 0.8125 C5.18248047 0.85310547 5.18248047 0.85310547 3.51953125 0.89453125 C2.68808594 0.92933594 1.85664063 0.96414062 1 1 Z " fill="#FEF0CE" transform="translate(389,108)"/>
<path d="M0 0 C0.95310059 0.01047363 1.90620117 0.02094727 2.88818359 0.03173828 C4.43505859 0.04140625 4.43505859 0.04140625 6.01318359 0.05126953 C7.63353516 0.07640625 7.63353516 0.07640625 9.28662109 0.10205078 C10.37458984 0.11107422 11.46255859 0.12009766 12.58349609 0.12939453 C15.27642261 0.15301669 17.96891365 0.18595522 20.66162109 0.22705078 C20.91095679 1.82820654 21.13540757 3.43325237 21.34912109 5.03955078 C21.47673828 5.93287109 21.60435547 6.82619141 21.73583984 7.74658203 C21.66162109 10.22705078 21.66162109 10.22705078 18.66162109 13.22705078 C18.99162109 9.59705078 19.32162109 5.96705078 19.66162109 2.22705078 C11.74162109 2.22705078 3.82162109 2.22705078 -4.33837891 2.22705078 C-2.33837891 0.22705078 -2.33837891 0.22705078 0 0 Z " fill="#FDE9CA" transform="translate(112.33837890625,95.77294921875)"/>
<path d="M0 0 C2.64 0 5.28 0 8 0 C7.67 1.65 7.34 3.3 7 5 C6.01 5 5.02 5 4 5 C4 5.99 4 6.98 4 8 C6.97 8 9.94 8 13 8 C13 8.33 13 8.66 13 9 C8.71 9 4.42 9 0 9 C0 6.03 0 3.06 0 0 Z " fill="#F49F28" transform="translate(344,143)"/>
<path d="M0 0 C5.33087655 -0.43695709 5.33087655 -0.43695709 8 0 C10.02829372 2.40859879 11 3.83044309 11 7 C4.70786517 7.36300778 4.70786517 7.36300778 1.5625 5.75 C0 4 0 4 0 0 Z " fill="#FB9A11" transform="translate(470,123)"/>
<path d="M0 0 C7.59 0.33 15.18 0.66 23 1 C23 1.66 23 2.32 23 3 C23.68707031 2.96519531 24.37414062 2.93039063 25.08203125 2.89453125 C25.98308594 2.86746094 26.88414062 2.84039062 27.8125 2.8125 C29.15248047 2.76029297 29.15248047 2.76029297 30.51953125 2.70703125 C33 3 33 3 34.8125 4.3125 C36.58043356 6.82482663 36.19885058 9.0172413 36 12 C35.67 12 35.34 12 35 12 C35 10.35 35 8.7 35 7 C23.36743887 4.56720041 11.81109623 2.36006563 0 1 C0 0.67 0 0.34 0 0 Z " fill="#F0AA48" transform="translate(470,130)"/>
<path d="M0 0 C2.97 0.33 5.94 0.66 9 1 C9 2.65 9 4.3 9 6 C8.01 6.33 7.02 6.66 6 7 C5.67 7.66 5.34 8.32 5 9 C2.5 6.75 2.5 6.75 0 4 C0 2.68 0 1.36 0 0 Z " fill="#FB9A12" transform="translate(520,123)"/>
<path d="M0 0 C0.57878906 0.36738281 1.15757813 0.73476562 1.75390625 1.11328125 C-1.98139973 4.39582287 -5.53576825 6.4860779 -10.24609375 8.11328125 C-12.70019206 7.84797332 -14.05223204 7.2102121 -16.24609375 6.11328125 C-15.91609375 5.45328125 -15.58609375 4.79328125 -15.24609375 4.11328125 C-14.56546875 3.98953125 -13.88484375 3.86578125 -13.18359375 3.73828125 C-9.73836969 3.00525486 -7.22264736 1.54098329 -4.2109375 -0.2421875 C-2.24609375 -0.88671875 -2.24609375 -0.88671875 0 0 Z " fill="#FDEFD0" transform="translate(97.24609375,160.88671875)"/>
<path d="M0 0 C4.875 3.75 4.875 3.75 6 6 C6.07116382 8.37402501 6.08409085 10.75000677 6.0625 13.125 C6.05347656 14.40632812 6.04445313 15.68765625 6.03515625 17.0078125 C6.02355469 17.99523437 6.01195312 18.98265625 6 20 C5.67 20 5.34 20 5 20 C4.67 16.04 4.34 12.08 4 8 C3.67 8.66 3.34 9.32 3 10 C2.01 9.67 1.02 9.34 0 9 C0 8.34 0 7.68 0 7 C-0.66 7 -1.32 7 -2 7 C-2 5.68 -2 4.36 -2 3 C-1.34 2.67 -0.68 2.34 0 2 C0 1.34 0 0.68 0 0 Z " fill="#F7A237" transform="translate(538,128)"/>
<path d="M0 0 C-0.33 2.97 -0.66 5.94 -1 9 C1.31 9.33 3.62 9.66 6 10 C3.70927004 11.44231146 2.2269613 11.99432597 -0.5 12.0625 C-4.40668036 10.40216085 -5.20529368 7.78882446 -7 4 C-7 3.34 -7 2.68 -7 2 C-2.25 0 -2.25 0 0 0 Z " fill="#F39F2C" transform="translate(91,167)"/>
<path d="M0 0 C0.99 0 1.98 0 3 0 C2.9375 1.8125 2.9375 1.8125 2 4 C-3.35714422 7.1250008 -7.89150586 7.37398944 -14 7 C-13 5 -13 5 -10.3125 3.96484375 C-9.219375 3.62582031 -8.12625 3.28679687 -7 2.9375 C-3.20553957 2.00261214 -3.20553957 2.00261214 0 0 Z " fill="#FEECCB" transform="translate(422,148)"/>
<path d="M0 0 C5.28 0 10.56 0 16 0 C15.67 1.32 15.34 2.64 15 4 C13.25034642 4.05429959 11.50020213 4.09292823 9.75 4.125 C8.77546875 4.14820312 7.8009375 4.17140625 6.796875 4.1953125 C3.9803502 3.99862781 2.39050964 3.44568916 0 2 C0 1.34 0 0.68 0 0 Z " fill="#FCFAF2" transform="translate(518,118)"/>
<path d="M0 0 C0 7.59 0 15.18 0 23 C3.96 23 7.92 23 12 23 C12 23.33 12 23.66 12 24 C7.71 24 3.42 24 -1 24 C-1 17.07 -1 10.14 -1 3 C-3.64 2.67 -6.28 2.34 -9 2 C-9 1.67 -9 1.34 -9 1 C-2.25 0 -2.25 0 0 0 Z " fill="#E9A03C" transform="translate(528,93)"/>
<path d="M0 0 C0.66 0.33 1.32 0.66 2 1 C1.625 3.9375 1.625 3.9375 1 7 C0.01 7.495 0.01 7.495 -1 8 C-0.67 9.32 -0.34 10.64 0 12 C-1.98 12 -3.96 12 -6 12 C-6.33 11.34 -6.66 10.68 -7 10 C-9.54941373 9.68758629 -12.00361513 9.48696579 -14.5625 9.375 C-15.27341797 9.33632812 -15.98433594 9.29765625 -16.71679688 9.2578125 C-18.47742425 9.16328217 -20.23867728 9.08054183 -22 9 C-22 8.67 -22 8.34 -22 8 C-21.44014404 7.97494385 -20.88028809 7.9498877 -20.3034668 7.92407227 C-17.76458695 7.80796255 -15.22606447 7.6853042 -12.6875 7.5625 C-11.36588867 7.50352539 -11.36588867 7.50352539 -10.01757812 7.44335938 C-8.74624023 7.38051758 -8.74624023 7.38051758 -7.44921875 7.31640625 C-6.66893311 7.27974854 -5.88864746 7.24309082 -5.0847168 7.20532227 C-2.80670899 7.05874737 -2.80670899 7.05874737 0 6 C0 4.02 0 2.04 0 0 Z " fill="#F29F2D" transform="translate(506,136)"/>
<path d="M0 0 C0.33 0 0.66 0 1 0 C1 5.61 1 11.22 1 17 C2.32 17.33 3.64 17.66 5 18 C4.67 19.65 4.34 21.3 4 23 C0.61790973 19.92537248 -0.8897047 17.49739895 -1.23046875 12.87109375 C-1.21628906 11.73800781 -1.20210938 10.60492188 -1.1875 9.4375 C-1.18105469 8.30183594 -1.17460937 7.16617188 -1.16796875 5.99609375 C-1 3 -1 3 0 0 Z " fill="#F1A83E" transform="translate(451,100)"/>
<path d="M0 0 C0 3.99759022 -1.78793431 5.75102851 -4 9 C-4 9.66 -4 10.32 -4 11 C-7.63 11 -11.26 11 -15 11 C-5.66666667 4 -5.66666667 4 -2 4 C-1.34 2.68 -0.68 1.36 0 0 Z " fill="#FCEBCB" transform="translate(118,165)"/>
<path d="M0 0 C0.85722656 -0.00515625 1.71445312 -0.0103125 2.59765625 -0.015625 C4.9375 0.25 4.9375 0.25 7.9375 2.25 C4.9675 1.92 1.9975 1.59 -1.0625 1.25 C-0.0725 3.89 0.9175 6.53 1.9375 9.25 C-3.8125 7.5 -3.8125 7.5 -6.0625 5.25 C-5.0725 5.25 -4.0825 5.25 -3.0625 5.25 C-3.0625 4.59 -3.0625 3.93 -3.0625 3.25 C-6.0325 2.755 -6.0325 2.755 -9.0625 2.25 C-5.93061623 0.41882898 -3.61429405 -0.0218057 0 0 Z " fill="#F89E2E" transform="translate(521.0625,121.75)"/>
<path d="M0 0 C0.66 0.33 1.32 0.66 2 1 C-2.71890538 6.40052505 -7.30358857 11.61814505 -13 16 C-13 13 -13 13 -11.7578125 11.39453125 C-11.21898438 10.87246094 -10.68015625 10.35039062 -10.125 9.8125 C-9.59132813 9.28269531 -9.05765625 8.75289063 -8.5078125 8.20703125 C-7 7 -7 7 -5 7 C-4.731875 6.401875 -4.46375 5.80375 -4.1875 5.1875 C-3.01506533 3.02775192 -1.80630718 1.64209744 0 0 Z " fill="#D3D3D3" transform="translate(98,266)"/>
<path d="M0 0 C3.875 1.75 3.875 1.75 5 4 C6.32 4 7.64 4 9 4 C9.33 5.32 9.66 6.64 10 8 C7.36 8 4.72 8 2 8 C2 8.99 2 9.98 2 11 C0.68 10.34 -0.64 9.68 -2 9 C-1.01 8.34 -0.02 7.68 1 7 C1.28056176 4.19438238 1.26710868 2.53421737 0 0 Z " fill="#F69F2C" transform="translate(406,134)"/>
<path d="M0 0 C0.66 0 1.32 0 2 0 C1.67 1.65 1.34 3.3 1 5 C1.9075 4.319375 2.815 3.63875 3.75 2.9375 C7 1 7 1 9.375 1.25 C9.91125 1.4975 10.4475 1.745 11 2 C11 2.66 11 3.32 11 4 C10.01 4 9.02 4 8 4 C8 4.66 8 5.32 8 6 C5.36 6 2.72 6 0 6 C-0.38218767 4.34385343 -0.71395102 2.67542976 -1 1 C-0.67 0.67 -0.34 0.34 0 0 Z " fill="#FC9910" transform="translate(90,171)"/>
<path d="M0 0 C4.95 0.33 9.9 0.66 15 1 C15 1.33 15 1.66 15 2 C11.04 2 7.08 2 3 2 C3 2.66 3 3.32 3 4 C6.3 4 9.6 4 13 4 C13 4.33 13 4.66 13 5 C8.71 5 4.42 5 0 5 C0 3.35 0 1.7 0 0 Z " fill="#FBE5BB" transform="translate(470,131)"/>
<path d="M0 0 C0.66 0.33 1.32 0.66 2 1 C-0.625 4.875 -0.625 4.875 -4 6 C-3.67 6.66 -3.34 7.32 -3 8 C-5.97 7.67 -8.94 7.34 -12 7 C-12 6.34 -12 5.68 -12 5 C-10.82630859 4.58427734 -10.82630859 4.58427734 -9.62890625 4.16015625 C-8.61699219 3.79792969 -7.60507812 3.43570313 -6.5625 3.0625 C-5.55316406 2.70285156 -4.54382813 2.34320313 -3.50390625 1.97265625 C-1.09686255 1.23122361 -1.09686255 1.23122361 0 0 Z " fill="#FCE9C1" transform="translate(438,118)"/>
<path d="M0 0 C1.10370043 3.3111013 0.92673641 5.24748949 0.5625 8.6875 C0.40974609 10.17830078 0.40974609 10.17830078 0.25390625 11.69921875 C0.12822266 12.83810547 0.12822266 12.83810547 0 14 C-0.99 13.67 -1.98 13.34 -3 13 C-3.08121924 11.39667209 -3.13929134 9.79215974 -3.1875 8.1875 C-3.22230469 7.29417969 -3.25710938 6.40085937 -3.29296875 5.48046875 C-2.95081002 2.58352485 -2.24606427 1.77444972 0 0 Z " fill="#FEF4DA" transform="translate(470,102)"/>
<path d="M0 0 C0.66 0 1.32 0 2 0 C3.1433729 3.43822772 2.86227289 5.96593766 2.1875 9.5 C2.01605469 10.4384375 1.84460938 11.376875 1.66796875 12.34375 C1.04633387 14.81574835 0.23875717 16.78382683 -1 19 C-2.67666168 15.64667665 -1.53482999 11.98935125 -1.0625 8.375 C-0.96259766 7.57320312 -0.86269531 6.77140625 -0.75976562 5.9453125 C-0.5119582 3.96285309 -0.25668193 1.98132991 0 0 Z " fill="#FDEBC5" transform="translate(544,136)"/>
<path d="M0 0 C0.33 0 0.66 0 1 0 C1 3.63 1 7.26 1 11 C4.96 11 8.92 11 13 11 C13 11.33 13 11.66 13 12 C11.08496326 12.22281874 9.16783494 12.42771076 7.25 12.625 C6.18265625 12.74101562 5.1153125 12.85703125 4.015625 12.9765625 C0.96207601 13.00029475 -0.46162421 12.61420985 -3 11 C-3 10.01 -3 9.02 -3 8 C-2.34 7.67 -1.68 7.34 -1 7 C-0.59270772 4.67843403 -0.25561323 2.3431213 0 0 Z " fill="#F2A132" transform="translate(388,133)"/>
<path d="M0 0 C4.43090471 1.20842856 6.98112756 2.51668565 10 6 C9.67 6.66 9.34 7.32 9 8 C8.34 7.34 7.68 6.68 7 6 C6.01 6 5.02 6 4 6 C1.6485148 5.04346365 -0.68745988 4.04718798 -3 3 C-2.01 2.01 -1.02 1.02 0 0 Z " fill="#FCECC9" transform="translate(416,96)"/>
<path d="M0 0 C0.33 1.32 0.66 2.64 1 4 C0.01 4.66 -0.98 5.32 -2 6 C-2.33 6.99 -2.66 7.98 -3 9 C-5 11 -5 11 -6.9453125 11.1953125 C-8.96354167 11.13020833 -10.98177083 11.06510417 -13 11 C-10.69949521 9.23038093 -8.39378087 7.61647361 -5.9375 6.0625 C-3.27616027 4.19389976 -1.73712458 2.70219379 0 0 Z " fill="#F4A63C" transform="translate(104,156)"/>
<path d="M0 0 C-2.97 0.66 -5.94 1.32 -9 2 C-9 2.99 -9 3.98 -9 5 C-8.38511719 4.97679688 -7.77023437 4.95359375 -7.13671875 4.9296875 C-6.32847656 4.91164063 -5.52023437 4.89359375 -4.6875 4.875 C-3.88699219 4.85179688 -3.08648437 4.82859375 -2.26171875 4.8046875 C0 5 0 5 3 7 C-1.29 6.67 -5.58 6.34 -10 6 C-10.33 4.35 -10.66 2.7 -11 1 C-8.28823289 -1.71176711 -3.29832916 -1.09944305 0 0 Z " fill="#F2A841" transform="translate(414,122)"/>
<path d="M0 0 C0.33 0.99 0.66 1.98 1 3 C-0.61886415 4.67262717 -2.2452729 6.33795537 -3.875 8 C-5.23238281 9.3921875 -5.23238281 9.3921875 -6.6171875 10.8125 C-9 13 -9 13 -11 13 C-9.46356148 9.31930113 -7.21849055 7.01224796 -4.375 4.25 C-3.55773437 3.45078125 -2.74046875 2.6515625 -1.8984375 1.828125 C-0.95871094 0.92320312 -0.95871094 0.92320312 0 0 Z " fill="#CFCFCF" transform="translate(83,281)"/>
<path d="M0 0 C1.32 0.66 2.64 1.32 4 2 C3.14148438 2.38285156 3.14148438 2.38285156 2.265625 2.7734375 C-0.24173733 4.13087159 -2.1330456 5.71974104 -4.25 7.625 C-4.95640625 8.25664062 -5.6628125 8.88828125 -6.390625 9.5390625 C-6.92171875 10.02117187 -7.4528125 10.50328125 -8 11 C-8.66 10.67 -9.32 10.34 -10 10 C-8.625 8.5 -8.625 8.5 -7 7 C-6.34 7 -5.68 7 -5 7 C-4.731875 6.401875 -4.46375 5.80375 -4.1875 5.1875 C-3.01506533 3.02775192 -1.80630718 1.64209744 0 0 Z " fill="#CECECE" transform="translate(130,234)"/>
<path d="M0 0 C2.02408755 0.09002398 4.04544287 0.24641038 6.0625 0.4375 C7.16722656 0.53933594 8.27195312 0.64117187 9.41015625 0.74609375 C10.26480469 0.82988281 11.11945313 0.91367188 12 1 C12 1.33 12 1.66 12 2 C5.03220597 3.32719886 -1.92988911 3.08825381 -9 3 C-9 2.67 -9 2.34 -9 2 C-6.94921875 1.77213542 -4.8984375 1.54427083 -2.84765625 1.31640625 C-0.98859771 1.18113386 -0.98859771 1.18113386 0 0 Z " fill="#F4A031" transform="translate(415,162)"/>
<path d="M0 0 C5.05255964 0.63156995 9.29593201 2.13459373 14 4 C11 6 11 6 9 6 C9 5.34 9 4.68 9 4 C6.69 4 4.38 4 2 4 C2 3.01 2 2.02 2 1 C1.34 0.67 0.68 0.34 0 0 Z " fill="#F5A335" transform="translate(504,128)"/>
<path d="M0 0 C0.33 0 0.66 0 1 0 C1.738041 13.6332574 1.738041 13.6332574 -3 20 C-3.33 20 -3.66 20 -4 20 C-4 18.02 -4 16.04 -4 14 C-3.01 13.67 -2.02 13.34 -1 13 C-0.67 8.71 -0.34 4.42 0 0 Z " fill="#F1A643" transform="translate(443,98)"/>
<path d="M0 0 C4 3 4 3 4.390625 5.04296875 C4.26041667 7.02864583 4.13020833 9.01432292 4 11 C3.01 11.33 2.02 11.66 1 12 C0.67 8.04 0.34 4.08 0 0 Z " fill="#FEF8E8" transform="translate(422,101)"/>
<path d="M0 0 C1.5625 1.8125 1.5625 1.8125 3 4 C2.67 4.99 2.34 5.98 2 7 C0.66666667 7.33333333 -0.66666667 7.66666667 -2 8 C-2.33 8.99 -2.66 9.98 -3 11 C-4.32 10.67 -5.64 10.34 -7 10 C-6.01 9.67 -5.02 9.34 -4 9 C-2.87914688 6.6569191 -2.87914688 6.6569191 -2 4 C-1.34786461 2.65949948 -0.68620031 1.32338632 0 0 Z " fill="#F5A334" transform="translate(88,144)"/>
<path d="M0 0 C0 0.66 0 1.32 0 2 C0.99 2.33 1.98 2.66 3 3 C-0.6678852 4.96189209 -3.87248551 6.39301257 -8 7 C-6.47663111 3.31852519 -4.31953005 0 0 0 Z " fill="#FDE6BF" transform="translate(476,97)"/>
<path d="M0 0 C2.97 0 5.94 0 9 0 C9 0.66 9 1.32 9 2 C4.8803623 3.29243536 1.33168317 4.26252625 -3 4 C-2.505 3.525625 -2.01 3.05125 -1.5 2.5625 C0.11542197 1.24076302 0.11542197 1.24076302 0 0 Z " fill="#FDF0D3" transform="translate(509,153)"/>
<path d="M0 0 C3 3 3 3 3.07421875 5.26171875 C2.94660156 6.06222656 2.81898438 6.86273438 2.6875 7.6875 C2.50767578 8.89986328 2.50767578 8.89986328 2.32421875 10.13671875 C2.21722656 10.75160156 2.11023438 11.36648437 2 12 C1.34 12 0.68 12 0 12 C0 8.04 0 4.08 0 0 Z " fill="#FDF7E4" transform="translate(426,135)"/>
<path d="M0 0 C0.66 0.33 1.32 0.66 2 1 C1.34 2.98 0.68 4.96 0 7 C-2.31 6.67 -4.62 6.34 -7 6 C-6 3 -6 3 -3.0625 1.25 C-2.051875 0.8375 -1.04125 0.425 0 0 Z " fill="#F3AF4E" transform="translate(421,120)"/>
<path d="M0 0 C4.29 0 8.58 0 13 0 C13 0.33 13 0.66 13 1 C11.35 1 9.7 1 8 1 C8 1.66 8 2.32 8 3 C8.99 3.33 9.98 3.66 11 4 C7.04 3.67 3.08 3.34 -1 3 C-0.67 2.01 -0.34 1.02 0 0 Z " fill="#FCEACB" transform="translate(510,117)"/>
<path d="M0 0 C0.33 0.99 0.66 1.98 1 3 C-1.89380576 7.17048478 -3.98990293 9.56854369 -9 11 C-7.95125002 8.37812506 -7.35068687 7.20628639 -4.875 5.75 C-4.25625 5.5025 -3.6375 5.255 -3 5 C-3 4.34 -3 3.68 -3 3 C-2.34 3 -1.68 3 -1 3 C-0.67 2.01 -0.34 1.02 0 0 Z " fill="#D2D2D2" transform="translate(153,211)"/>
<path d="M0 0 C0 0.66 0 1.32 0 2 C0.99 2.33 1.98 2.66 3 3 C-2.2734375 6.22265625 -2.2734375 6.22265625 -4 7 C-4.66 6.67 -5.32 6.34 -6 6 C-5.01 5.67 -4.02 5.34 -3 5 C-3.66 3.68 -4.32 2.36 -5 1 C-3 0 -3 0 0 0 Z " fill="#F5A230" transform="translate(533,158)"/>
<path d="M0 0 C8.57142857 -0.28571429 8.57142857 -0.28571429 12 2 C9.11788698 2.96070434 7.30149956 3.10581883 4.3125 3.0625 C3.10013672 3.04896484 3.10013672 3.04896484 1.86328125 3.03515625 C0.94095703 3.01775391 0.94095703 3.01775391 0 3 C0 2.01 0 1.02 0 0 Z " fill="#F5A234" transform="translate(488,126)"/>
<path d="M0 0 C0 0.66 0 1.32 0 2 C-2.31 2.33 -4.62 2.66 -7 3 C-7 3.66 -7 4.32 -7 5 C-8.98 5 -10.96 5 -13 5 C-13 4.34 -13 3.68 -13 3 C-11.2092015 2.49689942 -9.41733089 1.99761372 -7.625 1.5 C-6.62726563 1.2215625 -5.62953125 0.943125 -4.6015625 0.65625 C-2 0 -2 0 0 0 Z " fill="#FEF3DB" transform="translate(418,121)"/>
<path d="M0 0 C2 2 2 2 2.125 4.625 C2.08375 5.40875 2.0425 6.1925 2 7 C1.67 7 1.34 7 1 7 C0.67 8.65 0.34 10.3 0 12 C-2 10 -2 10 -2.265625 8.125 C-2.26046875 7.42375 -2.2553125 6.7225 -2.25 6 C-2.25515625 5.29875 -2.2603125 4.5975 -2.265625 3.875 C-2 2 -2 2 0 0 Z " fill="#F3A63A" transform="translate(472,103)"/>
<path d="M0 0 C0 0.99 0 1.98 0 3 C-0.99 3.33 -1.98 3.66 -3 4 C-3 4.99 -3 5.98 -3 7 C-5.97 7 -8.94 7 -12 7 C-9.62905601 5.41937067 -7.4213606 4.17309564 -4.875 2.9375 C-2.24526174 1.74120952 -2.24526174 1.74120952 0 0 Z " fill="#FCE5BB" transform="translate(443,156)"/>
<path d="M0 0 C2.4294516 3.6441774 2.16179575 5.71241272 2 10 C1.01 10 0.02 10 -1 10 C-1.02689216 8.52093108 -1.04634621 7.04172517 -1.0625 5.5625 C-1.07410156 4.73878906 -1.08570313 3.91507813 -1.09765625 3.06640625 C-1 1 -1 1 0 0 Z " fill="#FEF5DF" transform="translate(525,137)"/>
<path d="M0 0 C2.97 0.33 5.94 0.66 9 1 C9 1.99 9 2.98 9 4 C9.99 4.33 10.98 4.66 12 5 C7.25081338 4.53439347 3.89217595 3.83067342 0 1 C0 0.67 0 0.34 0 0 Z " fill="#F5AB4A" transform="translate(458,125)"/>
<path d="M0 0 C0.66 0 1.32 0 2 0 C2 3.63 2 7.26 2 11 C1.67 11 1.34 11 1 11 C1 9.35 1 7.7 1 6 C0.34 6 -0.32 6 -1 6 C-1 6.66 -1 7.32 -1 8 C-1.66 8 -2.32 8 -3 8 C-3 6.68 -3 5.36 -3 4 C-2.34 4 -1.68 4 -1 4 C-0.67 2.68 -0.34 1.36 0 0 Z " fill="#FDEDD4" transform="translate(76,98)"/>
<path d="M0 0 C-0.99 1.485 -0.99 1.485 -2 3 C-4.1640625 3.29296875 -4.1640625 3.29296875 -6.625 3.1875 C-7.44226563 3.16042969 -8.25953125 3.13335937 -9.1015625 3.10546875 C-9.72804688 3.07066406 -10.35453125 3.03585938 -11 3 C-8.89427904 -1.21144191 -4.11694326 -0.07767817 0 0 Z " fill="#FFF3DA" transform="translate(419,152)"/>
<path d="M0 0 C2.06242617 -0.02717692 4.12495703 -0.0464758 6.1875 -0.0625 C7.33605469 -0.07410156 8.48460937 -0.08570312 9.66796875 -0.09765625 C12.59300586 -0.01192832 15.16316291 0.32150977 18 1 C15 3 15 3 12.9375 2.6875 C11.968125 2.460625 10.99875 2.23375 10 2 C6.67178951 1.61204908 3.33679136 1.30452271 0 1 C0 0.67 0 0.34 0 0 Z " fill="#F3A236" transform="translate(409,87)"/>
<path d="M0 0 C-3.85623679 3.97674419 -3.85623679 3.97674419 -7.11328125 4.04296875 C-9.08863015 3.7798228 -11.04718291 3.39718314 -13 3 C-4.03773585 -2.01886792 -4.03773585 -2.01886792 0 0 Z " fill="#FDECCD" transform="translate(102,177)"/>
<path d="M0 0 C1.32 0.66 2.64 1.32 4 2 C4.36923077 7.53846154 4.36923077 7.53846154 2.5 9.875 C1.7575 10.431875 1.7575 10.431875 1 11 C0.34 10.34 -0.32 9.68 -1 9 C-0.34 9 0.32 9 1 9 C1.26932521 4.34947128 1.26932521 4.34947128 0 0 Z " fill="#F0A535" transform="translate(405,109)"/>
<path d="M0 0 C1.65 0.33 3.3 0.66 5 1 C5 1.99 5 2.98 5 4 C2.36 4 -0.28 4 -3 4 C-2.34 3.67 -1.68 3.34 -1 3 C-0.67 2.01 -0.34 1.02 0 0 Z " fill="#FE990C" transform="translate(515,145)"/>
<path d="M0 0 C0.66 0 1.32 0 2 0 C2.20140476 3.62528568 1.85776765 5.86501708 0 9 C-0.66 9 -1.32 9 -2 9 C-2 7.02 -2 5.04 -2 3 C-1.34 3 -0.68 3 0 3 C0 2.01 0 1.02 0 0 Z " fill="#FCFAE9" transform="translate(450,135)"/>
<path d="M0 0 C4.92127034 -0.16682272 8.50343896 -0.24828052 13 2 C13 2.33 13 2.66 13 3 C11.39504433 2.88557539 9.79101881 2.75805306 8.1875 2.625 C7.29417969 2.55539063 6.40085937 2.48578125 5.48046875 2.4140625 C3 2 3 2 0 0 Z " fill="#FFF9E1" transform="translate(501,126)"/>
<path d="M0 0 C0.33 0 0.66 0 1 0 C1.03738281 0.59167969 1.07476562 1.18335937 1.11328125 1.79296875 C1.51376901 6.60667451 2.0385035 10.00841777 5 14 C3.35 13.67 1.7 13.34 0 13 C0 8.71 0 4.42 0 0 Z " fill="#F3A33A" transform="translate(466,106)"/>
<path d="M0 0 C0.33 0 0.66 0 1 0 C1.33 4.95 1.66 9.9 2 15 C1.34 15 0.68 15 0 15 C0 14.34 0 13.68 0 13 C-0.66 12.67 -1.32 12.34 -2 12 C-1.67 11.34 -1.34 10.68 -1 10 C-0.77377919 8.29636178 -0.59111527 6.58671299 -0.4375 4.875 C-0.35371094 3.96492187 -0.26992188 3.05484375 -0.18359375 2.1171875 C-0.12300781 1.41851562 -0.06242187 0.71984375 0 0 Z " fill="#F8DDA8" transform="translate(425,135)"/>
<path d="M0 0 C2 1 2 1 4 3 C4.36933645 5.75372909 4.18336678 8.20365661 4 11 C3.896875 10.360625 3.79375 9.72125 3.6875 9.0625 C3.460625 8.381875 3.23375 7.70125 3 7 C2.01 6.67 1.02 6.34 0 6 C0 4.02 0 2.04 0 0 Z " fill="#F5A739" transform="translate(419,101)"/>
<path d="M0 0 C0.33 0 0.66 0 1 0 C0.91253716 1.43861294 0.80434652 2.87597508 0.6875 4.3125 C0.62949219 5.11300781 0.57148438 5.91351563 0.51171875 6.73828125 C-0.08206694 9.36272334 -0.95780294 10.30820672 -3 12 C-3.33 10.68 -3.66 9.36 -4 8 C-3.34 8 -2.68 8 -2 8 C-1.7834375 7.13375 -1.7834375 7.13375 -1.5625 6.25 C-1.04166667 4.16666667 -0.52083333 2.08333333 0 0 Z " fill="#F1A135" transform="translate(446,144)"/>
<path d="M0 0 C1.65 1.65 3.3 3.3 5 5 C4.01 5.495 4.01 5.495 3 6 C2.67 6.66 2.34 7.32 2 8 C0.4375 6.8125 0.4375 6.8125 -1 5 C-0.6875 2.3125 -0.6875 2.3125 0 0 Z " fill="#FCE5C1" transform="translate(470,113)"/>
<path d="M0 0 C2 2 2 2 2.1953125 4.6015625 C2.17210937 5.59929687 2.14890625 6.59703125 2.125 7.625 C2.10695313 8.62789062 2.08890625 9.63078125 2.0703125 10.6640625 C2.03550781 11.82035156 2.03550781 11.82035156 2 13 C0.0286529 9.34697313 -0.61567954 6.15066099 -1 2 C-0.67 1.34 -0.34 0.68 0 0 Z " fill="#E2E5E3" transform="translate(333,96)"/>
<path d="M0 0 C0.66 0.33 1.32 0.66 2 1 C-0.31 3.64 -2.62 6.28 -5 9 C-5.99 8.34 -6.98 7.68 -8 7 C-5.36 4.69 -2.72 2.38 0 0 Z " fill="#D4D4D4" transform="translate(185,66)"/>
<path d="M0 0 C0.33 0.99 0.66 1.98 1 3 C-1.97 5.475 -1.97 5.475 -5 8 C-5 5 -5 5 -2.5 2.3125 C-1.675 1.549375 -0.85 0.78625 0 0 Z " fill="#CDCDCD" transform="translate(90,274)"/>
<path d="M0 0 C1.9375 0.375 1.9375 0.375 4 1 C4.33 1.66 4.66 2.32 5 3 C4.2575 3.144375 3.515 3.28875 2.75 3.4375 C0.47972261 3.90187492 -1.75759479 4.41863569 -4 5 C-2.68 3.35 -1.36 1.7 0 0 Z " fill="#C6C6C6" transform="translate(161,203)"/>
<path d="M0 0 C0.66 0 1.32 0 2 0 C2 0.66 2 1.32 2 2 C4.97 2.33 7.94 2.66 11 3 C7 5 7 5 4.375 4.875 C2 4 2 4 0.6875 1.9375 C0.460625 1.298125 0.23375 0.65875 0 0 Z " fill="#EEA83F" transform="translate(86,174)"/>
<path d="M0 0 C3.60296594 -0.41176754 4.78402067 -0.1535853 7.8125 2 C8.534375 2.66 9.25625 3.32 10 4 C3.47692308 3.38461538 3.47692308 3.38461538 1.0625 1.4375 C0.711875 0.963125 0.36125 0.48875 0 0 Z " fill="#F3B458" transform="translate(475,118)"/>
<path d="M0 0 C2.97 0.495 2.97 0.495 6 1 C4.71034824 2.37562854 3.37310707 3.70766393 2 5 C1.34 5 0.68 5 0 5 C0 3.35 0 1.7 0 0 Z " fill="#F89A21" transform="translate(433,116)"/>
<path d="M0 0 C2 1.1875 2 1.1875 4 3 C4.25 5.6875 4.25 5.6875 4 8 C3.01 7.67 2.02 7.34 1 7 C0.67 4.69 0.34 2.38 0 0 Z " fill="#F4A031" transform="translate(439,93)"/>
<path d="M0 0 C0 1.65 0 3.3 0 5 C-0.33 4.34 -0.66 3.68 -1 3 C-2.89533342 2.53476937 -2.89533342 2.53476937 -5.0625 2.375 C-6.361875 2.25125 -7.66125 2.1275 -9 2 C-9 1.67 -9 1.34 -9 1 C-2.25 0 -2.25 0 0 0 Z " fill="#F4A63C" transform="translate(528,93)"/>
<path d="M0 0 C2.875 -0.1875 2.875 -0.1875 6 0 C6.66 0.99 7.32 1.98 8 3 C5.6875 3.625 5.6875 3.625 3 4 C2.01 3.34 1.02 2.68 0 2 C0 1.34 0 0.68 0 0 Z " fill="#FCE8C0" transform="translate(81,165)"/>
<path d="M0 0 C0.33 0.99 0.66 1.98 1 3 C2.65 3.33 4.3 3.66 6 4 C6 4.33 6 4.66 6 5 C3.69 5 1.38 5 -1 5 C-0.67 3.35 -0.34 1.7 0 0 Z " fill="#FEFAE7" transform="translate(468,150)"/>
<path d="M0 0 C1.32 0.99 2.64 1.98 4 3 C3.67 4.32 3.34 5.64 3 7 C2.01 6.34 1.02 5.68 0 5 C-0.1875 2.375 -0.1875 2.375 0 0 Z " fill="#F0A027" transform="translate(538,128)"/>
<path d="M0 0 C-1.32 0.99 -2.64 1.98 -4 3 C-5.32 2.34 -6.64 1.68 -8 1 C-4.93251126 -0.86240388 -3.40254489 -1.2151946 0 0 Z " fill="#FE990A" transform="translate(513,133)"/>
<path d="M0 0 C1.875 0.6875 1.875 0.6875 3.875 1.6875 C3.875 2.3475 3.875 3.0075 3.875 3.6875 C0.575 3.0275 -2.725 2.3675 -6.125 1.6875 C-2.125 -0.3125 -2.125 -0.3125 0 0 Z " fill="#FDEBC3" transform="translate(433.125,87.3125)"/>
</svg>
